M48
; DRILL file {KiCad (7.0.0)} date Thu Mar 23 19:50:30 2023
; FORMAT={-:-/ absolute / metric / decimal}
; #@! TF.CreationDate,2023-03-23T19:50:30-04:00
; #@! TF.GenerationSoftware,Kicad,Pcbnew,(7.0.0)
; #@! TF.FileFunction,Plated,1,2,PTH
FMAT,2
METRIC
; #@! TA.AperFunction,Plated,PTH,ComponentDrill
T1C0.800
; #@! TA.AperFunction,Plated,PTH,ComponentDrill
T2C0.900
; #@! TA.AperFunction,Plated,PTH,ComponentDrill
T3C1.000
%
G90
G05
T1
X102.54Y-61.9
X102.54Y-84.76
X112.7Y-61.9
X112.7Y-84.76
X127.94Y-61.9
X127.94Y-72.06
X127.98Y-79.68
X130.48Y-79.68
X135.56Y-61.9
X135.56Y-72.06
X138.14Y-89.84
X140.64Y-89.84
X143.18Y-61.9
X143.18Y-72.06
X148.26Y-77.14
X148.26Y-87.3
X155.88Y-79.68
X155.88Y-89.84
X157.73Y-60.63
X157.73Y-63.17
X157.73Y-65.71
X157.73Y-68.25
X160.27Y-60.63
X160.27Y-63.17
X160.27Y-65.71
X160.27Y-68.25
X163.5Y-79.68
X163.5Y-81.68
X163.5Y-83.68
X163.5Y-85.68
T2
X105.08Y-54.28
X105.08Y-92.38
X107.62Y-54.28
X107.62Y-92.38
T3
X118.796Y-49.2
X121.336Y-49.2
X123.876Y-49.2
X126.416Y-49.2
X127.94Y-97.46
X128.956Y-49.2
X130.48Y-97.46
X131.496Y-49.2
X133.02Y-97.46
X134.036Y-49.2
X135.56Y-97.46
X136.576Y-49.2
X138.1Y-97.46
X139.116Y-49.2
X140.64Y-97.46
X141.656Y-49.2
X143.18Y-97.46
X145.72Y-49.2
X145.72Y-97.46
X148.26Y-49.2
X150.8Y-49.2
X150.8Y-97.46
X153.34Y-49.2
X153.34Y-97.46
X155.88Y-49.2
X155.88Y-97.46
X158.42Y-49.2
X158.42Y-97.46
X160.96Y-49.2
X160.96Y-97.46
X163.5Y-49.2
X163.5Y-97.46
T0
M30
