%TF.GenerationSoftware,KiCad,Pcbnew,(7.0.0)*%
%TF.CreationDate,2023-03-23T19:50:35-04:00*%
%TF.ProjectId,ELEG298_S23_Demo_shield,454c4547-3239-4385-9f53-32335f44656d,rev?*%
%TF.SameCoordinates,Original*%
%TF.FileFunction,Drillmap*%
%TF.FilePolarity,Positive*%
%FSLAX45Y45*%
G04 Gerber Fmt 4.5, Leading zero omitted, Abs format (unit mm)*
G04 Created by KiCad (PCBNEW (7.0.0)) date 2023-03-23 19:50:35*
%MOMM*%
%LPD*%
G01*
G04 APERTURE LIST*
%ADD10C,0.150000*%
%ADD11C,0.200000*%
%ADD12C,0.320000*%
G04 APERTURE END LIST*
D10*
X16604000Y-5936000D02*
X16858000Y-6190000D01*
X10000000Y-9923800D02*
X10000000Y-4742200D01*
X16858000Y-6190000D02*
X16858000Y-9619000D01*
X16527800Y-10000000D02*
X10076200Y-10000000D01*
X10076200Y-4666000D02*
X16350000Y-4666000D01*
X10000000Y-9923800D02*
G75*
G03*
X10076200Y-10000000I76200J0D01*
G01*
X16858000Y-9619000D02*
X16604000Y-9873000D01*
X16350000Y-4666000D02*
X16604000Y-4920000D01*
X16527800Y-10000000D02*
G75*
G03*
X16604000Y-9923800I0J76200D01*
G01*
X16604000Y-4920000D02*
X16604000Y-5936000D01*
X16604000Y-9873000D02*
X16604000Y-9923800D01*
X10076200Y-4666000D02*
G75*
G03*
X10000000Y-4742200I0J-76200D01*
G01*
D11*
D12*
X11237000Y-9586000D02*
X11557000Y-9906000D01*
X11557000Y-9586000D02*
X11237000Y-9906000D01*
X11364000Y-4760000D02*
X11684000Y-5080000D01*
X11684000Y-4760000D02*
X11364000Y-5080000D01*
X16444000Y-6284000D02*
X16764000Y-6604000D01*
X16764000Y-6284000D02*
X16444000Y-6604000D01*
X16444000Y-9078000D02*
X16764000Y-9398000D01*
X16764000Y-9078000D02*
X16444000Y-9398000D01*
D11*
X10240119Y-10300976D02*
X10240119Y-10100976D01*
X10240119Y-10100976D02*
X10287738Y-10100976D01*
X10287738Y-10100976D02*
X10316310Y-10110500D01*
X10316310Y-10110500D02*
X10335357Y-10129548D01*
X10335357Y-10129548D02*
X10344881Y-10148595D01*
X10344881Y-10148595D02*
X10354405Y-10186690D01*
X10354405Y-10186690D02*
X10354405Y-10215262D01*
X10354405Y-10215262D02*
X10344881Y-10253357D01*
X10344881Y-10253357D02*
X10335357Y-10272405D01*
X10335357Y-10272405D02*
X10316310Y-10291452D01*
X10316310Y-10291452D02*
X10287738Y-10300976D01*
X10287738Y-10300976D02*
X10240119Y-10300976D01*
X10440119Y-10300976D02*
X10440119Y-10167643D01*
X10440119Y-10205738D02*
X10449643Y-10186690D01*
X10449643Y-10186690D02*
X10459167Y-10177167D01*
X10459167Y-10177167D02*
X10478214Y-10167643D01*
X10478214Y-10167643D02*
X10497262Y-10167643D01*
X10563929Y-10300976D02*
X10563929Y-10167643D01*
X10563929Y-10100976D02*
X10554405Y-10110500D01*
X10554405Y-10110500D02*
X10563929Y-10120024D01*
X10563929Y-10120024D02*
X10573452Y-10110500D01*
X10573452Y-10110500D02*
X10563929Y-10100976D01*
X10563929Y-10100976D02*
X10563929Y-10120024D01*
X10687738Y-10300976D02*
X10668690Y-10291452D01*
X10668690Y-10291452D02*
X10659167Y-10272405D01*
X10659167Y-10272405D02*
X10659167Y-10100976D01*
X10792500Y-10300976D02*
X10773452Y-10291452D01*
X10773452Y-10291452D02*
X10763929Y-10272405D01*
X10763929Y-10272405D02*
X10763929Y-10100976D01*
X10988690Y-10300976D02*
X10988690Y-10100976D01*
X10988690Y-10100976D02*
X11055357Y-10243833D01*
X11055357Y-10243833D02*
X11122024Y-10100976D01*
X11122024Y-10100976D02*
X11122024Y-10300976D01*
X11302976Y-10300976D02*
X11302976Y-10196214D01*
X11302976Y-10196214D02*
X11293452Y-10177167D01*
X11293452Y-10177167D02*
X11274405Y-10167643D01*
X11274405Y-10167643D02*
X11236309Y-10167643D01*
X11236309Y-10167643D02*
X11217262Y-10177167D01*
X11302976Y-10291452D02*
X11283928Y-10300976D01*
X11283928Y-10300976D02*
X11236309Y-10300976D01*
X11236309Y-10300976D02*
X11217262Y-10291452D01*
X11217262Y-10291452D02*
X11207738Y-10272405D01*
X11207738Y-10272405D02*
X11207738Y-10253357D01*
X11207738Y-10253357D02*
X11217262Y-10234310D01*
X11217262Y-10234310D02*
X11236309Y-10224786D01*
X11236309Y-10224786D02*
X11283928Y-10224786D01*
X11283928Y-10224786D02*
X11302976Y-10215262D01*
X11398214Y-10167643D02*
X11398214Y-10367643D01*
X11398214Y-10177167D02*
X11417262Y-10167643D01*
X11417262Y-10167643D02*
X11455357Y-10167643D01*
X11455357Y-10167643D02*
X11474405Y-10177167D01*
X11474405Y-10177167D02*
X11483928Y-10186690D01*
X11483928Y-10186690D02*
X11493452Y-10205738D01*
X11493452Y-10205738D02*
X11493452Y-10262881D01*
X11493452Y-10262881D02*
X11483928Y-10281929D01*
X11483928Y-10281929D02*
X11474405Y-10291452D01*
X11474405Y-10291452D02*
X11455357Y-10300976D01*
X11455357Y-10300976D02*
X11417262Y-10300976D01*
X11417262Y-10300976D02*
X11398214Y-10291452D01*
X11579167Y-10281929D02*
X11588690Y-10291452D01*
X11588690Y-10291452D02*
X11579167Y-10300976D01*
X11579167Y-10300976D02*
X11569643Y-10291452D01*
X11569643Y-10291452D02*
X11579167Y-10281929D01*
X11579167Y-10281929D02*
X11579167Y-10300976D01*
X11579167Y-10177167D02*
X11588690Y-10186690D01*
X11588690Y-10186690D02*
X11579167Y-10196214D01*
X11579167Y-10196214D02*
X11569643Y-10186690D01*
X11569643Y-10186690D02*
X11579167Y-10177167D01*
X11579167Y-10177167D02*
X11579167Y-10196214D01*
X9792500Y-10547500D02*
X9992500Y-10747500D01*
X9992500Y-10547500D02*
X9792500Y-10747500D01*
X10221071Y-10520976D02*
X10344881Y-10520976D01*
X10344881Y-10520976D02*
X10278214Y-10597167D01*
X10278214Y-10597167D02*
X10306786Y-10597167D01*
X10306786Y-10597167D02*
X10325833Y-10606690D01*
X10325833Y-10606690D02*
X10335357Y-10616214D01*
X10335357Y-10616214D02*
X10344881Y-10635262D01*
X10344881Y-10635262D02*
X10344881Y-10682881D01*
X10344881Y-10682881D02*
X10335357Y-10701929D01*
X10335357Y-10701929D02*
X10325833Y-10711452D01*
X10325833Y-10711452D02*
X10306786Y-10720976D01*
X10306786Y-10720976D02*
X10249643Y-10720976D01*
X10249643Y-10720976D02*
X10230595Y-10711452D01*
X10230595Y-10711452D02*
X10221071Y-10701929D01*
X10430595Y-10701929D02*
X10440119Y-10711452D01*
X10440119Y-10711452D02*
X10430595Y-10720976D01*
X10430595Y-10720976D02*
X10421071Y-10711452D01*
X10421071Y-10711452D02*
X10430595Y-10701929D01*
X10430595Y-10701929D02*
X10430595Y-10720976D01*
X10516310Y-10540024D02*
X10525833Y-10530500D01*
X10525833Y-10530500D02*
X10544881Y-10520976D01*
X10544881Y-10520976D02*
X10592500Y-10520976D01*
X10592500Y-10520976D02*
X10611548Y-10530500D01*
X10611548Y-10530500D02*
X10621071Y-10540024D01*
X10621071Y-10540024D02*
X10630595Y-10559071D01*
X10630595Y-10559071D02*
X10630595Y-10578119D01*
X10630595Y-10578119D02*
X10621071Y-10606690D01*
X10621071Y-10606690D02*
X10506786Y-10720976D01*
X10506786Y-10720976D02*
X10630595Y-10720976D01*
X10754405Y-10520976D02*
X10773452Y-10520976D01*
X10773452Y-10520976D02*
X10792500Y-10530500D01*
X10792500Y-10530500D02*
X10802024Y-10540024D01*
X10802024Y-10540024D02*
X10811548Y-10559071D01*
X10811548Y-10559071D02*
X10821071Y-10597167D01*
X10821071Y-10597167D02*
X10821071Y-10644786D01*
X10821071Y-10644786D02*
X10811548Y-10682881D01*
X10811548Y-10682881D02*
X10802024Y-10701929D01*
X10802024Y-10701929D02*
X10792500Y-10711452D01*
X10792500Y-10711452D02*
X10773452Y-10720976D01*
X10773452Y-10720976D02*
X10754405Y-10720976D01*
X10754405Y-10720976D02*
X10735357Y-10711452D01*
X10735357Y-10711452D02*
X10725833Y-10701929D01*
X10725833Y-10701929D02*
X10716310Y-10682881D01*
X10716310Y-10682881D02*
X10706786Y-10644786D01*
X10706786Y-10644786D02*
X10706786Y-10597167D01*
X10706786Y-10597167D02*
X10716310Y-10559071D01*
X10716310Y-10559071D02*
X10725833Y-10540024D01*
X10725833Y-10540024D02*
X10735357Y-10530500D01*
X10735357Y-10530500D02*
X10754405Y-10520976D01*
X10944881Y-10520976D02*
X10963929Y-10520976D01*
X10963929Y-10520976D02*
X10982976Y-10530500D01*
X10982976Y-10530500D02*
X10992500Y-10540024D01*
X10992500Y-10540024D02*
X11002024Y-10559071D01*
X11002024Y-10559071D02*
X11011548Y-10597167D01*
X11011548Y-10597167D02*
X11011548Y-10644786D01*
X11011548Y-10644786D02*
X11002024Y-10682881D01*
X11002024Y-10682881D02*
X10992500Y-10701929D01*
X10992500Y-10701929D02*
X10982976Y-10711452D01*
X10982976Y-10711452D02*
X10963929Y-10720976D01*
X10963929Y-10720976D02*
X10944881Y-10720976D01*
X10944881Y-10720976D02*
X10925833Y-10711452D01*
X10925833Y-10711452D02*
X10916310Y-10701929D01*
X10916310Y-10701929D02*
X10906786Y-10682881D01*
X10906786Y-10682881D02*
X10897262Y-10644786D01*
X10897262Y-10644786D02*
X10897262Y-10597167D01*
X10897262Y-10597167D02*
X10906786Y-10559071D01*
X10906786Y-10559071D02*
X10916310Y-10540024D01*
X10916310Y-10540024D02*
X10925833Y-10530500D01*
X10925833Y-10530500D02*
X10944881Y-10520976D01*
X11097262Y-10720976D02*
X11097262Y-10587643D01*
X11097262Y-10606690D02*
X11106786Y-10597167D01*
X11106786Y-10597167D02*
X11125833Y-10587643D01*
X11125833Y-10587643D02*
X11154405Y-10587643D01*
X11154405Y-10587643D02*
X11173452Y-10597167D01*
X11173452Y-10597167D02*
X11182976Y-10616214D01*
X11182976Y-10616214D02*
X11182976Y-10720976D01*
X11182976Y-10616214D02*
X11192500Y-10597167D01*
X11192500Y-10597167D02*
X11211548Y-10587643D01*
X11211548Y-10587643D02*
X11240119Y-10587643D01*
X11240119Y-10587643D02*
X11259167Y-10597167D01*
X11259167Y-10597167D02*
X11268690Y-10616214D01*
X11268690Y-10616214D02*
X11268690Y-10720976D01*
X11363929Y-10720976D02*
X11363929Y-10587643D01*
X11363929Y-10606690D02*
X11373452Y-10597167D01*
X11373452Y-10597167D02*
X11392500Y-10587643D01*
X11392500Y-10587643D02*
X11421071Y-10587643D01*
X11421071Y-10587643D02*
X11440119Y-10597167D01*
X11440119Y-10597167D02*
X11449643Y-10616214D01*
X11449643Y-10616214D02*
X11449643Y-10720976D01*
X11449643Y-10616214D02*
X11459167Y-10597167D01*
X11459167Y-10597167D02*
X11478214Y-10587643D01*
X11478214Y-10587643D02*
X11506786Y-10587643D01*
X11506786Y-10587643D02*
X11525833Y-10597167D01*
X11525833Y-10597167D02*
X11535357Y-10616214D01*
X11535357Y-10616214D02*
X11535357Y-10720976D01*
X11893452Y-10511452D02*
X11722024Y-10768595D01*
X12118214Y-10520976D02*
X12137262Y-10520976D01*
X12137262Y-10520976D02*
X12156310Y-10530500D01*
X12156310Y-10530500D02*
X12165833Y-10540024D01*
X12165833Y-10540024D02*
X12175357Y-10559071D01*
X12175357Y-10559071D02*
X12184881Y-10597167D01*
X12184881Y-10597167D02*
X12184881Y-10644786D01*
X12184881Y-10644786D02*
X12175357Y-10682881D01*
X12175357Y-10682881D02*
X12165833Y-10701929D01*
X12165833Y-10701929D02*
X12156310Y-10711452D01*
X12156310Y-10711452D02*
X12137262Y-10720976D01*
X12137262Y-10720976D02*
X12118214Y-10720976D01*
X12118214Y-10720976D02*
X12099167Y-10711452D01*
X12099167Y-10711452D02*
X12089643Y-10701929D01*
X12089643Y-10701929D02*
X12080119Y-10682881D01*
X12080119Y-10682881D02*
X12070595Y-10644786D01*
X12070595Y-10644786D02*
X12070595Y-10597167D01*
X12070595Y-10597167D02*
X12080119Y-10559071D01*
X12080119Y-10559071D02*
X12089643Y-10540024D01*
X12089643Y-10540024D02*
X12099167Y-10530500D01*
X12099167Y-10530500D02*
X12118214Y-10520976D01*
X12270595Y-10701929D02*
X12280119Y-10711452D01*
X12280119Y-10711452D02*
X12270595Y-10720976D01*
X12270595Y-10720976D02*
X12261071Y-10711452D01*
X12261071Y-10711452D02*
X12270595Y-10701929D01*
X12270595Y-10701929D02*
X12270595Y-10720976D01*
X12470595Y-10720976D02*
X12356310Y-10720976D01*
X12413452Y-10720976D02*
X12413452Y-10520976D01*
X12413452Y-10520976D02*
X12394405Y-10549548D01*
X12394405Y-10549548D02*
X12375357Y-10568595D01*
X12375357Y-10568595D02*
X12356310Y-10578119D01*
X12546786Y-10540024D02*
X12556310Y-10530500D01*
X12556310Y-10530500D02*
X12575357Y-10520976D01*
X12575357Y-10520976D02*
X12622976Y-10520976D01*
X12622976Y-10520976D02*
X12642024Y-10530500D01*
X12642024Y-10530500D02*
X12651548Y-10540024D01*
X12651548Y-10540024D02*
X12661071Y-10559071D01*
X12661071Y-10559071D02*
X12661071Y-10578119D01*
X12661071Y-10578119D02*
X12651548Y-10606690D01*
X12651548Y-10606690D02*
X12537262Y-10720976D01*
X12537262Y-10720976D02*
X12661071Y-10720976D01*
X12832500Y-10520976D02*
X12794405Y-10520976D01*
X12794405Y-10520976D02*
X12775357Y-10530500D01*
X12775357Y-10530500D02*
X12765833Y-10540024D01*
X12765833Y-10540024D02*
X12746786Y-10568595D01*
X12746786Y-10568595D02*
X12737262Y-10606690D01*
X12737262Y-10606690D02*
X12737262Y-10682881D01*
X12737262Y-10682881D02*
X12746786Y-10701929D01*
X12746786Y-10701929D02*
X12756310Y-10711452D01*
X12756310Y-10711452D02*
X12775357Y-10720976D01*
X12775357Y-10720976D02*
X12813452Y-10720976D01*
X12813452Y-10720976D02*
X12832500Y-10711452D01*
X12832500Y-10711452D02*
X12842024Y-10701929D01*
X12842024Y-10701929D02*
X12851548Y-10682881D01*
X12851548Y-10682881D02*
X12851548Y-10635262D01*
X12851548Y-10635262D02*
X12842024Y-10616214D01*
X12842024Y-10616214D02*
X12832500Y-10606690D01*
X12832500Y-10606690D02*
X12813452Y-10597167D01*
X12813452Y-10597167D02*
X12775357Y-10597167D01*
X12775357Y-10597167D02*
X12756310Y-10606690D01*
X12756310Y-10606690D02*
X12746786Y-10616214D01*
X12746786Y-10616214D02*
X12737262Y-10635262D01*
X12975357Y-10520976D02*
X12994405Y-10520976D01*
X12994405Y-10520976D02*
X13013452Y-10530500D01*
X13013452Y-10530500D02*
X13022976Y-10540024D01*
X13022976Y-10540024D02*
X13032500Y-10559071D01*
X13032500Y-10559071D02*
X13042024Y-10597167D01*
X13042024Y-10597167D02*
X13042024Y-10644786D01*
X13042024Y-10644786D02*
X13032500Y-10682881D01*
X13032500Y-10682881D02*
X13022976Y-10701929D01*
X13022976Y-10701929D02*
X13013452Y-10711452D01*
X13013452Y-10711452D02*
X12994405Y-10720976D01*
X12994405Y-10720976D02*
X12975357Y-10720976D01*
X12975357Y-10720976D02*
X12956310Y-10711452D01*
X12956310Y-10711452D02*
X12946786Y-10701929D01*
X12946786Y-10701929D02*
X12937262Y-10682881D01*
X12937262Y-10682881D02*
X12927738Y-10644786D01*
X12927738Y-10644786D02*
X12927738Y-10597167D01*
X12927738Y-10597167D02*
X12937262Y-10559071D01*
X12937262Y-10559071D02*
X12946786Y-10540024D01*
X12946786Y-10540024D02*
X12956310Y-10530500D01*
X12956310Y-10530500D02*
X12975357Y-10520976D01*
X13118214Y-10520976D02*
X13118214Y-10559071D01*
X13194405Y-10520976D02*
X13194405Y-10559071D01*
X13457262Y-10797167D02*
X13447738Y-10787643D01*
X13447738Y-10787643D02*
X13428691Y-10759071D01*
X13428691Y-10759071D02*
X13419167Y-10740024D01*
X13419167Y-10740024D02*
X13409643Y-10711452D01*
X13409643Y-10711452D02*
X13400119Y-10663833D01*
X13400119Y-10663833D02*
X13400119Y-10625738D01*
X13400119Y-10625738D02*
X13409643Y-10578119D01*
X13409643Y-10578119D02*
X13419167Y-10549548D01*
X13419167Y-10549548D02*
X13428691Y-10530500D01*
X13428691Y-10530500D02*
X13447738Y-10501929D01*
X13447738Y-10501929D02*
X13457262Y-10492405D01*
X13619167Y-10587643D02*
X13619167Y-10720976D01*
X13571548Y-10511452D02*
X13523929Y-10654310D01*
X13523929Y-10654310D02*
X13647738Y-10654310D01*
X13843929Y-10720976D02*
X13843929Y-10520976D01*
X13929643Y-10720976D02*
X13929643Y-10616214D01*
X13929643Y-10616214D02*
X13920119Y-10597167D01*
X13920119Y-10597167D02*
X13901072Y-10587643D01*
X13901072Y-10587643D02*
X13872500Y-10587643D01*
X13872500Y-10587643D02*
X13853452Y-10597167D01*
X13853452Y-10597167D02*
X13843929Y-10606690D01*
X14053452Y-10720976D02*
X14034405Y-10711452D01*
X14034405Y-10711452D02*
X14024881Y-10701929D01*
X14024881Y-10701929D02*
X14015357Y-10682881D01*
X14015357Y-10682881D02*
X14015357Y-10625738D01*
X14015357Y-10625738D02*
X14024881Y-10606690D01*
X14024881Y-10606690D02*
X14034405Y-10597167D01*
X14034405Y-10597167D02*
X14053452Y-10587643D01*
X14053452Y-10587643D02*
X14082024Y-10587643D01*
X14082024Y-10587643D02*
X14101072Y-10597167D01*
X14101072Y-10597167D02*
X14110595Y-10606690D01*
X14110595Y-10606690D02*
X14120119Y-10625738D01*
X14120119Y-10625738D02*
X14120119Y-10682881D01*
X14120119Y-10682881D02*
X14110595Y-10701929D01*
X14110595Y-10701929D02*
X14101072Y-10711452D01*
X14101072Y-10711452D02*
X14082024Y-10720976D01*
X14082024Y-10720976D02*
X14053452Y-10720976D01*
X14234405Y-10720976D02*
X14215357Y-10711452D01*
X14215357Y-10711452D02*
X14205833Y-10692405D01*
X14205833Y-10692405D02*
X14205833Y-10520976D01*
X14386786Y-10711452D02*
X14367738Y-10720976D01*
X14367738Y-10720976D02*
X14329643Y-10720976D01*
X14329643Y-10720976D02*
X14310595Y-10711452D01*
X14310595Y-10711452D02*
X14301072Y-10692405D01*
X14301072Y-10692405D02*
X14301072Y-10616214D01*
X14301072Y-10616214D02*
X14310595Y-10597167D01*
X14310595Y-10597167D02*
X14329643Y-10587643D01*
X14329643Y-10587643D02*
X14367738Y-10587643D01*
X14367738Y-10587643D02*
X14386786Y-10597167D01*
X14386786Y-10597167D02*
X14396310Y-10616214D01*
X14396310Y-10616214D02*
X14396310Y-10635262D01*
X14396310Y-10635262D02*
X14301072Y-10654310D01*
X14472500Y-10711452D02*
X14491548Y-10720976D01*
X14491548Y-10720976D02*
X14529643Y-10720976D01*
X14529643Y-10720976D02*
X14548691Y-10711452D01*
X14548691Y-10711452D02*
X14558214Y-10692405D01*
X14558214Y-10692405D02*
X14558214Y-10682881D01*
X14558214Y-10682881D02*
X14548691Y-10663833D01*
X14548691Y-10663833D02*
X14529643Y-10654310D01*
X14529643Y-10654310D02*
X14501072Y-10654310D01*
X14501072Y-10654310D02*
X14482024Y-10644786D01*
X14482024Y-10644786D02*
X14472500Y-10625738D01*
X14472500Y-10625738D02*
X14472500Y-10616214D01*
X14472500Y-10616214D02*
X14482024Y-10597167D01*
X14482024Y-10597167D02*
X14501072Y-10587643D01*
X14501072Y-10587643D02*
X14529643Y-10587643D01*
X14529643Y-10587643D02*
X14548691Y-10597167D01*
X14624881Y-10797167D02*
X14634405Y-10787643D01*
X14634405Y-10787643D02*
X14653453Y-10759071D01*
X14653453Y-10759071D02*
X14662976Y-10740024D01*
X14662976Y-10740024D02*
X14672500Y-10711452D01*
X14672500Y-10711452D02*
X14682024Y-10663833D01*
X14682024Y-10663833D02*
X14682024Y-10625738D01*
X14682024Y-10625738D02*
X14672500Y-10578119D01*
X14672500Y-10578119D02*
X14662976Y-10549548D01*
X14662976Y-10549548D02*
X14653453Y-10530500D01*
X14653453Y-10530500D02*
X14634405Y-10501929D01*
X14634405Y-10501929D02*
X14624881Y-10492405D01*
X14954405Y-10797167D02*
X14944881Y-10787643D01*
X14944881Y-10787643D02*
X14925833Y-10759071D01*
X14925833Y-10759071D02*
X14916310Y-10740024D01*
X14916310Y-10740024D02*
X14906786Y-10711452D01*
X14906786Y-10711452D02*
X14897262Y-10663833D01*
X14897262Y-10663833D02*
X14897262Y-10625738D01*
X14897262Y-10625738D02*
X14906786Y-10578119D01*
X14906786Y-10578119D02*
X14916310Y-10549548D01*
X14916310Y-10549548D02*
X14925833Y-10530500D01*
X14925833Y-10530500D02*
X14944881Y-10501929D01*
X14944881Y-10501929D02*
X14954405Y-10492405D01*
X15030595Y-10587643D02*
X15030595Y-10720976D01*
X15030595Y-10606690D02*
X15040119Y-10597167D01*
X15040119Y-10597167D02*
X15059167Y-10587643D01*
X15059167Y-10587643D02*
X15087738Y-10587643D01*
X15087738Y-10587643D02*
X15106786Y-10597167D01*
X15106786Y-10597167D02*
X15116310Y-10616214D01*
X15116310Y-10616214D02*
X15116310Y-10720976D01*
X15240119Y-10720976D02*
X15221072Y-10711452D01*
X15221072Y-10711452D02*
X15211548Y-10701929D01*
X15211548Y-10701929D02*
X15202024Y-10682881D01*
X15202024Y-10682881D02*
X15202024Y-10625738D01*
X15202024Y-10625738D02*
X15211548Y-10606690D01*
X15211548Y-10606690D02*
X15221072Y-10597167D01*
X15221072Y-10597167D02*
X15240119Y-10587643D01*
X15240119Y-10587643D02*
X15268691Y-10587643D01*
X15268691Y-10587643D02*
X15287738Y-10597167D01*
X15287738Y-10597167D02*
X15297262Y-10606690D01*
X15297262Y-10606690D02*
X15306786Y-10625738D01*
X15306786Y-10625738D02*
X15306786Y-10682881D01*
X15306786Y-10682881D02*
X15297262Y-10701929D01*
X15297262Y-10701929D02*
X15287738Y-10711452D01*
X15287738Y-10711452D02*
X15268691Y-10720976D01*
X15268691Y-10720976D02*
X15240119Y-10720976D01*
X15363929Y-10587643D02*
X15440119Y-10587643D01*
X15392500Y-10520976D02*
X15392500Y-10692405D01*
X15392500Y-10692405D02*
X15402024Y-10711452D01*
X15402024Y-10711452D02*
X15421072Y-10720976D01*
X15421072Y-10720976D02*
X15440119Y-10720976D01*
X15626786Y-10587643D02*
X15626786Y-10787643D01*
X15626786Y-10597167D02*
X15645833Y-10587643D01*
X15645833Y-10587643D02*
X15683929Y-10587643D01*
X15683929Y-10587643D02*
X15702976Y-10597167D01*
X15702976Y-10597167D02*
X15712500Y-10606690D01*
X15712500Y-10606690D02*
X15722024Y-10625738D01*
X15722024Y-10625738D02*
X15722024Y-10682881D01*
X15722024Y-10682881D02*
X15712500Y-10701929D01*
X15712500Y-10701929D02*
X15702976Y-10711452D01*
X15702976Y-10711452D02*
X15683929Y-10720976D01*
X15683929Y-10720976D02*
X15645833Y-10720976D01*
X15645833Y-10720976D02*
X15626786Y-10711452D01*
X15836310Y-10720976D02*
X15817262Y-10711452D01*
X15817262Y-10711452D02*
X15807738Y-10692405D01*
X15807738Y-10692405D02*
X15807738Y-10520976D01*
X15998214Y-10720976D02*
X15998214Y-10616214D01*
X15998214Y-10616214D02*
X15988691Y-10597167D01*
X15988691Y-10597167D02*
X15969643Y-10587643D01*
X15969643Y-10587643D02*
X15931548Y-10587643D01*
X15931548Y-10587643D02*
X15912500Y-10597167D01*
X15998214Y-10711452D02*
X15979167Y-10720976D01*
X15979167Y-10720976D02*
X15931548Y-10720976D01*
X15931548Y-10720976D02*
X15912500Y-10711452D01*
X15912500Y-10711452D02*
X15902976Y-10692405D01*
X15902976Y-10692405D02*
X15902976Y-10673357D01*
X15902976Y-10673357D02*
X15912500Y-10654310D01*
X15912500Y-10654310D02*
X15931548Y-10644786D01*
X15931548Y-10644786D02*
X15979167Y-10644786D01*
X15979167Y-10644786D02*
X15998214Y-10635262D01*
X16064881Y-10587643D02*
X16141072Y-10587643D01*
X16093453Y-10520976D02*
X16093453Y-10692405D01*
X16093453Y-10692405D02*
X16102976Y-10711452D01*
X16102976Y-10711452D02*
X16122024Y-10720976D01*
X16122024Y-10720976D02*
X16141072Y-10720976D01*
X16283929Y-10711452D02*
X16264881Y-10720976D01*
X16264881Y-10720976D02*
X16226786Y-10720976D01*
X16226786Y-10720976D02*
X16207738Y-10711452D01*
X16207738Y-10711452D02*
X16198214Y-10692405D01*
X16198214Y-10692405D02*
X16198214Y-10616214D01*
X16198214Y-10616214D02*
X16207738Y-10597167D01*
X16207738Y-10597167D02*
X16226786Y-10587643D01*
X16226786Y-10587643D02*
X16264881Y-10587643D01*
X16264881Y-10587643D02*
X16283929Y-10597167D01*
X16283929Y-10597167D02*
X16293453Y-10616214D01*
X16293453Y-10616214D02*
X16293453Y-10635262D01*
X16293453Y-10635262D02*
X16198214Y-10654310D01*
X16464881Y-10720976D02*
X16464881Y-10520976D01*
X16464881Y-10711452D02*
X16445834Y-10720976D01*
X16445834Y-10720976D02*
X16407738Y-10720976D01*
X16407738Y-10720976D02*
X16388691Y-10711452D01*
X16388691Y-10711452D02*
X16379167Y-10701929D01*
X16379167Y-10701929D02*
X16369643Y-10682881D01*
X16369643Y-10682881D02*
X16369643Y-10625738D01*
X16369643Y-10625738D02*
X16379167Y-10606690D01*
X16379167Y-10606690D02*
X16388691Y-10597167D01*
X16388691Y-10597167D02*
X16407738Y-10587643D01*
X16407738Y-10587643D02*
X16445834Y-10587643D01*
X16445834Y-10587643D02*
X16464881Y-10597167D01*
X16541072Y-10797167D02*
X16550595Y-10787643D01*
X16550595Y-10787643D02*
X16569643Y-10759071D01*
X16569643Y-10759071D02*
X16579167Y-10740024D01*
X16579167Y-10740024D02*
X16588691Y-10711452D01*
X16588691Y-10711452D02*
X16598214Y-10663833D01*
X16598214Y-10663833D02*
X16598214Y-10625738D01*
X16598214Y-10625738D02*
X16588691Y-10578119D01*
X16588691Y-10578119D02*
X16579167Y-10549548D01*
X16579167Y-10549548D02*
X16569643Y-10530500D01*
X16569643Y-10530500D02*
X16550595Y-10501929D01*
X16550595Y-10501929D02*
X16541072Y-10492405D01*
M02*
