%TF.GenerationSoftware,KiCad,Pcbnew,(7.0.0)*%
%TF.CreationDate,2023-03-24T12:39:27-04:00*%
%TF.ProjectId,ELEG298_S23_Demo_shield,454c4547-3239-4385-9f53-32335f44656d,rev?*%
%TF.SameCoordinates,Original*%
%TF.FileFunction,Legend,Top*%
%TF.FilePolarity,Positive*%
%FSLAX46Y46*%
G04 Gerber Fmt 4.6, Leading zero omitted, Abs format (unit mm)*
G04 Created by KiCad (PCBNEW (7.0.0)) date 2023-03-24 12:39:27*
%MOMM*%
%LPD*%
G01*
G04 APERTURE LIST*
%ADD10C,0.153000*%
%ADD11C,0.125000*%
%ADD12C,0.150000*%
%ADD13C,0.120000*%
%ADD14C,0.127000*%
%ADD15C,0.200000*%
%ADD16R,1.700000X1.700000*%
%ADD17O,1.700000X1.700000*%
%ADD18R,1.800000X1.800000*%
%ADD19C,1.800000*%
%ADD20C,1.600000*%
%ADD21O,1.600000X1.600000*%
%ADD22R,1.600000X1.600000*%
%ADD23R,1.308000X1.308000*%
%ADD24C,1.308000*%
%ADD25C,3.200000*%
%ADD26R,1.500000X1.500000*%
%ADD27C,1.500000*%
G04 APERTURE END LIST*
D10*
X102257095Y-56510476D02*
X100957095Y-56510476D01*
X101576142Y-56510476D02*
X101576142Y-55767619D01*
X102257095Y-55767619D02*
X100957095Y-55767619D01*
X102257095Y-55148571D02*
X101390428Y-55148571D01*
X100957095Y-55148571D02*
X101019000Y-55210475D01*
X101019000Y-55210475D02*
X101080904Y-55148571D01*
X101080904Y-55148571D02*
X101019000Y-55086666D01*
X101019000Y-55086666D02*
X100957095Y-55148571D01*
X100957095Y-55148571D02*
X101080904Y-55148571D01*
X101390428Y-53972380D02*
X102442809Y-53972380D01*
X102442809Y-53972380D02*
X102566619Y-54034285D01*
X102566619Y-54034285D02*
X102628523Y-54096189D01*
X102628523Y-54096189D02*
X102690428Y-54219999D01*
X102690428Y-54219999D02*
X102690428Y-54405713D01*
X102690428Y-54405713D02*
X102628523Y-54529523D01*
X102195190Y-53972380D02*
X102257095Y-54096189D01*
X102257095Y-54096189D02*
X102257095Y-54343808D01*
X102257095Y-54343808D02*
X102195190Y-54467618D01*
X102195190Y-54467618D02*
X102133285Y-54529523D01*
X102133285Y-54529523D02*
X102009476Y-54591427D01*
X102009476Y-54591427D02*
X101638047Y-54591427D01*
X101638047Y-54591427D02*
X101514238Y-54529523D01*
X101514238Y-54529523D02*
X101452333Y-54467618D01*
X101452333Y-54467618D02*
X101390428Y-54343808D01*
X101390428Y-54343808D02*
X101390428Y-54096189D01*
X101390428Y-54096189D02*
X101452333Y-53972380D01*
X102257095Y-53353333D02*
X100957095Y-53353333D01*
X102257095Y-52796190D02*
X101576142Y-52796190D01*
X101576142Y-52796190D02*
X101452333Y-52858095D01*
X101452333Y-52858095D02*
X101390428Y-52981904D01*
X101390428Y-52981904D02*
X101390428Y-53167618D01*
X101390428Y-53167618D02*
X101452333Y-53291428D01*
X101452333Y-53291428D02*
X101514238Y-53353333D01*
D11*
X116003808Y-82437904D02*
X116460951Y-82437904D01*
X116232379Y-83237904D02*
X116232379Y-82437904D01*
X116727618Y-83237904D02*
X116727618Y-82437904D01*
X117070475Y-83237904D02*
X117070475Y-82818857D01*
X117070475Y-82818857D02*
X117032380Y-82742666D01*
X117032380Y-82742666D02*
X116956189Y-82704571D01*
X116956189Y-82704571D02*
X116841903Y-82704571D01*
X116841903Y-82704571D02*
X116765713Y-82742666D01*
X116765713Y-82742666D02*
X116727618Y-82780761D01*
X117756190Y-83199809D02*
X117679999Y-83237904D01*
X117679999Y-83237904D02*
X117527618Y-83237904D01*
X117527618Y-83237904D02*
X117451428Y-83199809D01*
X117451428Y-83199809D02*
X117413332Y-83123619D01*
X117413332Y-83123619D02*
X117413332Y-82818857D01*
X117413332Y-82818857D02*
X117451428Y-82742666D01*
X117451428Y-82742666D02*
X117527618Y-82704571D01*
X117527618Y-82704571D02*
X117679999Y-82704571D01*
X117679999Y-82704571D02*
X117756190Y-82742666D01*
X117756190Y-82742666D02*
X117794285Y-82818857D01*
X117794285Y-82818857D02*
X117794285Y-82895047D01*
X117794285Y-82895047D02*
X117413332Y-82971238D01*
X118137142Y-83237904D02*
X118137142Y-82704571D01*
X118137142Y-82856952D02*
X118175237Y-82780761D01*
X118175237Y-82780761D02*
X118213332Y-82742666D01*
X118213332Y-82742666D02*
X118289523Y-82704571D01*
X118289523Y-82704571D02*
X118365713Y-82704571D01*
X118632380Y-83237904D02*
X118632380Y-82704571D01*
X118632380Y-82780761D02*
X118670475Y-82742666D01*
X118670475Y-82742666D02*
X118746665Y-82704571D01*
X118746665Y-82704571D02*
X118860951Y-82704571D01*
X118860951Y-82704571D02*
X118937142Y-82742666D01*
X118937142Y-82742666D02*
X118975237Y-82818857D01*
X118975237Y-82818857D02*
X118975237Y-83237904D01*
X118975237Y-82818857D02*
X119013332Y-82742666D01*
X119013332Y-82742666D02*
X119089523Y-82704571D01*
X119089523Y-82704571D02*
X119203808Y-82704571D01*
X119203808Y-82704571D02*
X119279999Y-82742666D01*
X119279999Y-82742666D02*
X119318094Y-82818857D01*
X119318094Y-82818857D02*
X119318094Y-83237904D01*
X119813332Y-83237904D02*
X119737142Y-83199809D01*
X119737142Y-83199809D02*
X119699047Y-83161714D01*
X119699047Y-83161714D02*
X119660951Y-83085523D01*
X119660951Y-83085523D02*
X119660951Y-82856952D01*
X119660951Y-82856952D02*
X119699047Y-82780761D01*
X119699047Y-82780761D02*
X119737142Y-82742666D01*
X119737142Y-82742666D02*
X119813332Y-82704571D01*
X119813332Y-82704571D02*
X119927618Y-82704571D01*
X119927618Y-82704571D02*
X120003809Y-82742666D01*
X120003809Y-82742666D02*
X120041904Y-82780761D01*
X120041904Y-82780761D02*
X120079999Y-82856952D01*
X120079999Y-82856952D02*
X120079999Y-83085523D01*
X120079999Y-83085523D02*
X120041904Y-83161714D01*
X120041904Y-83161714D02*
X120003809Y-83199809D01*
X120003809Y-83199809D02*
X119927618Y-83237904D01*
X119927618Y-83237904D02*
X119813332Y-83237904D01*
X120384761Y-83199809D02*
X120460952Y-83237904D01*
X120460952Y-83237904D02*
X120613333Y-83237904D01*
X120613333Y-83237904D02*
X120689523Y-83199809D01*
X120689523Y-83199809D02*
X120727619Y-83123619D01*
X120727619Y-83123619D02*
X120727619Y-83085523D01*
X120727619Y-83085523D02*
X120689523Y-83009333D01*
X120689523Y-83009333D02*
X120613333Y-82971238D01*
X120613333Y-82971238D02*
X120499047Y-82971238D01*
X120499047Y-82971238D02*
X120422857Y-82933142D01*
X120422857Y-82933142D02*
X120384761Y-82856952D01*
X120384761Y-82856952D02*
X120384761Y-82818857D01*
X120384761Y-82818857D02*
X120422857Y-82742666D01*
X120422857Y-82742666D02*
X120499047Y-82704571D01*
X120499047Y-82704571D02*
X120613333Y-82704571D01*
X120613333Y-82704571D02*
X120689523Y-82742666D01*
X120956190Y-82704571D02*
X121260952Y-82704571D01*
X121070476Y-82437904D02*
X121070476Y-83123619D01*
X121070476Y-83123619D02*
X121108571Y-83199809D01*
X121108571Y-83199809D02*
X121184761Y-83237904D01*
X121184761Y-83237904D02*
X121260952Y-83237904D01*
X121870476Y-83237904D02*
X121870476Y-82818857D01*
X121870476Y-82818857D02*
X121832381Y-82742666D01*
X121832381Y-82742666D02*
X121756190Y-82704571D01*
X121756190Y-82704571D02*
X121603809Y-82704571D01*
X121603809Y-82704571D02*
X121527619Y-82742666D01*
X121870476Y-83199809D02*
X121794285Y-83237904D01*
X121794285Y-83237904D02*
X121603809Y-83237904D01*
X121603809Y-83237904D02*
X121527619Y-83199809D01*
X121527619Y-83199809D02*
X121489523Y-83123619D01*
X121489523Y-83123619D02*
X121489523Y-83047428D01*
X121489523Y-83047428D02*
X121527619Y-82971238D01*
X121527619Y-82971238D02*
X121603809Y-82933142D01*
X121603809Y-82933142D02*
X121794285Y-82933142D01*
X121794285Y-82933142D02*
X121870476Y-82895047D01*
X122137143Y-82704571D02*
X122441905Y-82704571D01*
X122251429Y-82437904D02*
X122251429Y-83123619D01*
X122251429Y-83123619D02*
X122289524Y-83199809D01*
X122289524Y-83199809D02*
X122365714Y-83237904D01*
X122365714Y-83237904D02*
X122441905Y-83237904D01*
X123188572Y-83237904D02*
X123188572Y-82437904D01*
X123683809Y-83237904D02*
X123607619Y-83199809D01*
X123607619Y-83199809D02*
X123569524Y-83161714D01*
X123569524Y-83161714D02*
X123531428Y-83085523D01*
X123531428Y-83085523D02*
X123531428Y-82856952D01*
X123531428Y-82856952D02*
X123569524Y-82780761D01*
X123569524Y-82780761D02*
X123607619Y-82742666D01*
X123607619Y-82742666D02*
X123683809Y-82704571D01*
X123683809Y-82704571D02*
X123798095Y-82704571D01*
X123798095Y-82704571D02*
X123874286Y-82742666D01*
X123874286Y-82742666D02*
X123912381Y-82780761D01*
X123912381Y-82780761D02*
X123950476Y-82856952D01*
X123950476Y-82856952D02*
X123950476Y-83085523D01*
X123950476Y-83085523D02*
X123912381Y-83161714D01*
X123912381Y-83161714D02*
X123874286Y-83199809D01*
X123874286Y-83199809D02*
X123798095Y-83237904D01*
X123798095Y-83237904D02*
X123683809Y-83237904D01*
X124179048Y-82437904D02*
X124636191Y-82437904D01*
X124407619Y-83237904D02*
X124407619Y-82437904D01*
X119146667Y-84533904D02*
X118880000Y-84152952D01*
X118689524Y-84533904D02*
X118689524Y-83733904D01*
X118689524Y-83733904D02*
X118994286Y-83733904D01*
X118994286Y-83733904D02*
X119070476Y-83772000D01*
X119070476Y-83772000D02*
X119108571Y-83810095D01*
X119108571Y-83810095D02*
X119146667Y-83886285D01*
X119146667Y-83886285D02*
X119146667Y-84000571D01*
X119146667Y-84000571D02*
X119108571Y-84076761D01*
X119108571Y-84076761D02*
X119070476Y-84114857D01*
X119070476Y-84114857D02*
X118994286Y-84152952D01*
X118994286Y-84152952D02*
X118689524Y-84152952D01*
X119794286Y-84495809D02*
X119718095Y-84533904D01*
X119718095Y-84533904D02*
X119565714Y-84533904D01*
X119565714Y-84533904D02*
X119489524Y-84495809D01*
X119489524Y-84495809D02*
X119451428Y-84419619D01*
X119451428Y-84419619D02*
X119451428Y-84114857D01*
X119451428Y-84114857D02*
X119489524Y-84038666D01*
X119489524Y-84038666D02*
X119565714Y-84000571D01*
X119565714Y-84000571D02*
X119718095Y-84000571D01*
X119718095Y-84000571D02*
X119794286Y-84038666D01*
X119794286Y-84038666D02*
X119832381Y-84114857D01*
X119832381Y-84114857D02*
X119832381Y-84191047D01*
X119832381Y-84191047D02*
X119451428Y-84267238D01*
X120099047Y-84000571D02*
X120289523Y-84533904D01*
X120289523Y-84533904D02*
X120480000Y-84000571D01*
X120784762Y-84457714D02*
X120822857Y-84495809D01*
X120822857Y-84495809D02*
X120784762Y-84533904D01*
X120784762Y-84533904D02*
X120746666Y-84495809D01*
X120746666Y-84495809D02*
X120784762Y-84457714D01*
X120784762Y-84457714D02*
X120784762Y-84533904D01*
X121127618Y-84305333D02*
X121508571Y-84305333D01*
X121051428Y-84533904D02*
X121318095Y-83733904D01*
X121318095Y-83733904D02*
X121584761Y-84533904D01*
X117691428Y-85029904D02*
X118186666Y-85029904D01*
X118186666Y-85029904D02*
X117920000Y-85334666D01*
X117920000Y-85334666D02*
X118034285Y-85334666D01*
X118034285Y-85334666D02*
X118110476Y-85372761D01*
X118110476Y-85372761D02*
X118148571Y-85410857D01*
X118148571Y-85410857D02*
X118186666Y-85487047D01*
X118186666Y-85487047D02*
X118186666Y-85677523D01*
X118186666Y-85677523D02*
X118148571Y-85753714D01*
X118148571Y-85753714D02*
X118110476Y-85791809D01*
X118110476Y-85791809D02*
X118034285Y-85829904D01*
X118034285Y-85829904D02*
X117805714Y-85829904D01*
X117805714Y-85829904D02*
X117729523Y-85791809D01*
X117729523Y-85791809D02*
X117691428Y-85753714D01*
X119100952Y-84991809D02*
X118415238Y-86020380D01*
X119786666Y-85829904D02*
X119329523Y-85829904D01*
X119558095Y-85829904D02*
X119558095Y-85029904D01*
X119558095Y-85029904D02*
X119481904Y-85144190D01*
X119481904Y-85144190D02*
X119405714Y-85220380D01*
X119405714Y-85220380D02*
X119329523Y-85258476D01*
X120472381Y-85296571D02*
X120472381Y-85829904D01*
X120281905Y-84991809D02*
X120091428Y-85563238D01*
X120091428Y-85563238D02*
X120586667Y-85563238D01*
X121462857Y-84991809D02*
X120777143Y-86020380D01*
X121691428Y-85106095D02*
X121729524Y-85068000D01*
X121729524Y-85068000D02*
X121805714Y-85029904D01*
X121805714Y-85029904D02*
X121996190Y-85029904D01*
X121996190Y-85029904D02*
X122072381Y-85068000D01*
X122072381Y-85068000D02*
X122110476Y-85106095D01*
X122110476Y-85106095D02*
X122148571Y-85182285D01*
X122148571Y-85182285D02*
X122148571Y-85258476D01*
X122148571Y-85258476D02*
X122110476Y-85372761D01*
X122110476Y-85372761D02*
X121653333Y-85829904D01*
X121653333Y-85829904D02*
X122148571Y-85829904D01*
X122415238Y-85029904D02*
X122910476Y-85029904D01*
X122910476Y-85029904D02*
X122643810Y-85334666D01*
X122643810Y-85334666D02*
X122758095Y-85334666D01*
X122758095Y-85334666D02*
X122834286Y-85372761D01*
X122834286Y-85372761D02*
X122872381Y-85410857D01*
X122872381Y-85410857D02*
X122910476Y-85487047D01*
X122910476Y-85487047D02*
X122910476Y-85677523D01*
X122910476Y-85677523D02*
X122872381Y-85753714D01*
X122872381Y-85753714D02*
X122834286Y-85791809D01*
X122834286Y-85791809D02*
X122758095Y-85829904D01*
X122758095Y-85829904D02*
X122529524Y-85829904D01*
X122529524Y-85829904D02*
X122453333Y-85791809D01*
X122453333Y-85791809D02*
X122415238Y-85753714D01*
X116899046Y-86897333D02*
X117279999Y-86897333D01*
X116822856Y-87125904D02*
X117089523Y-86325904D01*
X117089523Y-86325904D02*
X117356189Y-87125904D01*
X117622856Y-87049714D02*
X117660951Y-87087809D01*
X117660951Y-87087809D02*
X117622856Y-87125904D01*
X117622856Y-87125904D02*
X117584760Y-87087809D01*
X117584760Y-87087809D02*
X117622856Y-87049714D01*
X117622856Y-87049714D02*
X117622856Y-87125904D01*
X118483808Y-86706857D02*
X118750474Y-86706857D01*
X118864760Y-87125904D02*
X118483808Y-87125904D01*
X118483808Y-87125904D02*
X118483808Y-86325904D01*
X118483808Y-86325904D02*
X118864760Y-86325904D01*
X119207618Y-87125904D02*
X119207618Y-86325904D01*
X119283808Y-86821142D02*
X119512380Y-87125904D01*
X119512380Y-86592571D02*
X119207618Y-86897333D01*
X120198094Y-86592571D02*
X120198094Y-87125904D01*
X119855237Y-86592571D02*
X119855237Y-87011619D01*
X119855237Y-87011619D02*
X119893332Y-87087809D01*
X119893332Y-87087809D02*
X119969522Y-87125904D01*
X119969522Y-87125904D02*
X120083808Y-87125904D01*
X120083808Y-87125904D02*
X120159999Y-87087809D01*
X120159999Y-87087809D02*
X120198094Y-87049714D01*
X120579047Y-86592571D02*
X120579047Y-87125904D01*
X120579047Y-86668761D02*
X120617142Y-86630666D01*
X120617142Y-86630666D02*
X120693332Y-86592571D01*
X120693332Y-86592571D02*
X120807618Y-86592571D01*
X120807618Y-86592571D02*
X120883809Y-86630666D01*
X120883809Y-86630666D02*
X120921904Y-86706857D01*
X120921904Y-86706857D02*
X120921904Y-87125904D01*
X121645714Y-87125904D02*
X121645714Y-86325904D01*
X121645714Y-87087809D02*
X121569523Y-87125904D01*
X121569523Y-87125904D02*
X121417142Y-87125904D01*
X121417142Y-87125904D02*
X121340952Y-87087809D01*
X121340952Y-87087809D02*
X121302857Y-87049714D01*
X121302857Y-87049714D02*
X121264761Y-86973523D01*
X121264761Y-86973523D02*
X121264761Y-86744952D01*
X121264761Y-86744952D02*
X121302857Y-86668761D01*
X121302857Y-86668761D02*
X121340952Y-86630666D01*
X121340952Y-86630666D02*
X121417142Y-86592571D01*
X121417142Y-86592571D02*
X121569523Y-86592571D01*
X121569523Y-86592571D02*
X121645714Y-86630666D01*
X122369524Y-87125904D02*
X122369524Y-86706857D01*
X122369524Y-86706857D02*
X122331429Y-86630666D01*
X122331429Y-86630666D02*
X122255238Y-86592571D01*
X122255238Y-86592571D02*
X122102857Y-86592571D01*
X122102857Y-86592571D02*
X122026667Y-86630666D01*
X122369524Y-87087809D02*
X122293333Y-87125904D01*
X122293333Y-87125904D02*
X122102857Y-87125904D01*
X122102857Y-87125904D02*
X122026667Y-87087809D01*
X122026667Y-87087809D02*
X121988571Y-87011619D01*
X121988571Y-87011619D02*
X121988571Y-86935428D01*
X121988571Y-86935428D02*
X122026667Y-86859238D01*
X122026667Y-86859238D02*
X122102857Y-86821142D01*
X122102857Y-86821142D02*
X122293333Y-86821142D01*
X122293333Y-86821142D02*
X122369524Y-86783047D01*
X122674286Y-86592571D02*
X122864762Y-87125904D01*
X123055239Y-86592571D02*
X122864762Y-87125904D01*
X122864762Y-87125904D02*
X122788572Y-87316380D01*
X122788572Y-87316380D02*
X122750477Y-87354476D01*
X122750477Y-87354476D02*
X122674286Y-87392571D01*
X123474286Y-87125904D02*
X123398096Y-87087809D01*
X123398096Y-87087809D02*
X123360001Y-87049714D01*
X123360001Y-87049714D02*
X123321905Y-86973523D01*
X123321905Y-86973523D02*
X123321905Y-86744952D01*
X123321905Y-86744952D02*
X123360001Y-86668761D01*
X123360001Y-86668761D02*
X123398096Y-86630666D01*
X123398096Y-86630666D02*
X123474286Y-86592571D01*
X123474286Y-86592571D02*
X123588572Y-86592571D01*
X123588572Y-86592571D02*
X123664763Y-86630666D01*
X123664763Y-86630666D02*
X123702858Y-86668761D01*
X123702858Y-86668761D02*
X123740953Y-86744952D01*
X123740953Y-86744952D02*
X123740953Y-86973523D01*
X123740953Y-86973523D02*
X123702858Y-87049714D01*
X123702858Y-87049714D02*
X123664763Y-87087809D01*
X123664763Y-87087809D02*
X123588572Y-87125904D01*
X123588572Y-87125904D02*
X123474286Y-87125904D01*
D10*
X102257095Y-93991428D02*
X102257095Y-94610476D01*
X102257095Y-94610476D02*
X100957095Y-94610476D01*
X102257095Y-93372380D02*
X102195190Y-93496190D01*
X102195190Y-93496190D02*
X102133285Y-93558095D01*
X102133285Y-93558095D02*
X102009476Y-93619999D01*
X102009476Y-93619999D02*
X101638047Y-93619999D01*
X101638047Y-93619999D02*
X101514238Y-93558095D01*
X101514238Y-93558095D02*
X101452333Y-93496190D01*
X101452333Y-93496190D02*
X101390428Y-93372380D01*
X101390428Y-93372380D02*
X101390428Y-93186666D01*
X101390428Y-93186666D02*
X101452333Y-93062857D01*
X101452333Y-93062857D02*
X101514238Y-93000952D01*
X101514238Y-93000952D02*
X101638047Y-92939047D01*
X101638047Y-92939047D02*
X102009476Y-92939047D01*
X102009476Y-92939047D02*
X102133285Y-93000952D01*
X102133285Y-93000952D02*
X102195190Y-93062857D01*
X102195190Y-93062857D02*
X102257095Y-93186666D01*
X102257095Y-93186666D02*
X102257095Y-93372380D01*
X101390428Y-92505714D02*
X102257095Y-92258095D01*
X102257095Y-92258095D02*
X101638047Y-92010476D01*
X101638047Y-92010476D02*
X102257095Y-91762857D01*
X102257095Y-91762857D02*
X101390428Y-91515238D01*
D12*
X105611905Y-88787380D02*
X105611905Y-87787380D01*
X105611905Y-87787380D02*
X105850000Y-87787380D01*
X105850000Y-87787380D02*
X105992857Y-87835000D01*
X105992857Y-87835000D02*
X106088095Y-87930238D01*
X106088095Y-87930238D02*
X106135714Y-88025476D01*
X106135714Y-88025476D02*
X106183333Y-88215952D01*
X106183333Y-88215952D02*
X106183333Y-88358809D01*
X106183333Y-88358809D02*
X106135714Y-88549285D01*
X106135714Y-88549285D02*
X106088095Y-88644523D01*
X106088095Y-88644523D02*
X105992857Y-88739761D01*
X105992857Y-88739761D02*
X105850000Y-88787380D01*
X105850000Y-88787380D02*
X105611905Y-88787380D01*
X106564286Y-87882619D02*
X106611905Y-87835000D01*
X106611905Y-87835000D02*
X106707143Y-87787380D01*
X106707143Y-87787380D02*
X106945238Y-87787380D01*
X106945238Y-87787380D02*
X107040476Y-87835000D01*
X107040476Y-87835000D02*
X107088095Y-87882619D01*
X107088095Y-87882619D02*
X107135714Y-87977857D01*
X107135714Y-87977857D02*
X107135714Y-88073095D01*
X107135714Y-88073095D02*
X107088095Y-88215952D01*
X107088095Y-88215952D02*
X106516667Y-88787380D01*
X106516667Y-88787380D02*
X107135714Y-88787380D01*
X140473333Y-69887380D02*
X140140000Y-69411190D01*
X139901905Y-69887380D02*
X139901905Y-68887380D01*
X139901905Y-68887380D02*
X140282857Y-68887380D01*
X140282857Y-68887380D02*
X140378095Y-68935000D01*
X140378095Y-68935000D02*
X140425714Y-68982619D01*
X140425714Y-68982619D02*
X140473333Y-69077857D01*
X140473333Y-69077857D02*
X140473333Y-69220714D01*
X140473333Y-69220714D02*
X140425714Y-69315952D01*
X140425714Y-69315952D02*
X140378095Y-69363571D01*
X140378095Y-69363571D02*
X140282857Y-69411190D01*
X140282857Y-69411190D02*
X139901905Y-69411190D01*
X140806667Y-68887380D02*
X141425714Y-68887380D01*
X141425714Y-68887380D02*
X141092381Y-69268333D01*
X141092381Y-69268333D02*
X141235238Y-69268333D01*
X141235238Y-69268333D02*
X141330476Y-69315952D01*
X141330476Y-69315952D02*
X141378095Y-69363571D01*
X141378095Y-69363571D02*
X141425714Y-69458809D01*
X141425714Y-69458809D02*
X141425714Y-69696904D01*
X141425714Y-69696904D02*
X141378095Y-69792142D01*
X141378095Y-69792142D02*
X141330476Y-69839761D01*
X141330476Y-69839761D02*
X141235238Y-69887380D01*
X141235238Y-69887380D02*
X140949524Y-69887380D01*
X140949524Y-69887380D02*
X140854286Y-69839761D01*
X140854286Y-69839761D02*
X140806667Y-69792142D01*
X139223333Y-85712142D02*
X139175714Y-85759761D01*
X139175714Y-85759761D02*
X139032857Y-85807380D01*
X139032857Y-85807380D02*
X138937619Y-85807380D01*
X138937619Y-85807380D02*
X138794762Y-85759761D01*
X138794762Y-85759761D02*
X138699524Y-85664523D01*
X138699524Y-85664523D02*
X138651905Y-85569285D01*
X138651905Y-85569285D02*
X138604286Y-85378809D01*
X138604286Y-85378809D02*
X138604286Y-85235952D01*
X138604286Y-85235952D02*
X138651905Y-85045476D01*
X138651905Y-85045476D02*
X138699524Y-84950238D01*
X138699524Y-84950238D02*
X138794762Y-84855000D01*
X138794762Y-84855000D02*
X138937619Y-84807380D01*
X138937619Y-84807380D02*
X139032857Y-84807380D01*
X139032857Y-84807380D02*
X139175714Y-84855000D01*
X139175714Y-84855000D02*
X139223333Y-84902619D01*
X140175714Y-85807380D02*
X139604286Y-85807380D01*
X139890000Y-85807380D02*
X139890000Y-84807380D01*
X139890000Y-84807380D02*
X139794762Y-84950238D01*
X139794762Y-84950238D02*
X139699524Y-85045476D01*
X139699524Y-85045476D02*
X139604286Y-85093095D01*
X159382380Y-95101904D02*
X159382380Y-94530476D01*
X160382380Y-94816190D02*
X159382380Y-94816190D01*
X160334761Y-93816190D02*
X160382380Y-93911428D01*
X160382380Y-93911428D02*
X160382380Y-94101904D01*
X160382380Y-94101904D02*
X160334761Y-94197142D01*
X160334761Y-94197142D02*
X160239523Y-94244761D01*
X160239523Y-94244761D02*
X159858571Y-94244761D01*
X159858571Y-94244761D02*
X159763333Y-94197142D01*
X159763333Y-94197142D02*
X159715714Y-94101904D01*
X159715714Y-94101904D02*
X159715714Y-93911428D01*
X159715714Y-93911428D02*
X159763333Y-93816190D01*
X159763333Y-93816190D02*
X159858571Y-93768571D01*
X159858571Y-93768571D02*
X159953809Y-93768571D01*
X159953809Y-93768571D02*
X160049047Y-94244761D01*
X160382380Y-93339999D02*
X159715714Y-93339999D01*
X159810952Y-93339999D02*
X159763333Y-93292380D01*
X159763333Y-93292380D02*
X159715714Y-93197142D01*
X159715714Y-93197142D02*
X159715714Y-93054285D01*
X159715714Y-93054285D02*
X159763333Y-92959047D01*
X159763333Y-92959047D02*
X159858571Y-92911428D01*
X159858571Y-92911428D02*
X160382380Y-92911428D01*
X159858571Y-92911428D02*
X159763333Y-92863809D01*
X159763333Y-92863809D02*
X159715714Y-92768571D01*
X159715714Y-92768571D02*
X159715714Y-92625714D01*
X159715714Y-92625714D02*
X159763333Y-92530475D01*
X159763333Y-92530475D02*
X159858571Y-92482856D01*
X159858571Y-92482856D02*
X160382380Y-92482856D01*
X159715714Y-92006666D02*
X160715714Y-92006666D01*
X159763333Y-92006666D02*
X159715714Y-91911428D01*
X159715714Y-91911428D02*
X159715714Y-91720952D01*
X159715714Y-91720952D02*
X159763333Y-91625714D01*
X159763333Y-91625714D02*
X159810952Y-91578095D01*
X159810952Y-91578095D02*
X159906190Y-91530476D01*
X159906190Y-91530476D02*
X160191904Y-91530476D01*
X160191904Y-91530476D02*
X160287142Y-91578095D01*
X160287142Y-91578095D02*
X160334761Y-91625714D01*
X160334761Y-91625714D02*
X160382380Y-91720952D01*
X160382380Y-91720952D02*
X160382380Y-91911428D01*
X160382380Y-91911428D02*
X160334761Y-92006666D01*
X160334761Y-91149523D02*
X160382380Y-91006666D01*
X160382380Y-91006666D02*
X160382380Y-90768571D01*
X160382380Y-90768571D02*
X160334761Y-90673333D01*
X160334761Y-90673333D02*
X160287142Y-90625714D01*
X160287142Y-90625714D02*
X160191904Y-90578095D01*
X160191904Y-90578095D02*
X160096666Y-90578095D01*
X160096666Y-90578095D02*
X160001428Y-90625714D01*
X160001428Y-90625714D02*
X159953809Y-90673333D01*
X159953809Y-90673333D02*
X159906190Y-90768571D01*
X159906190Y-90768571D02*
X159858571Y-90959047D01*
X159858571Y-90959047D02*
X159810952Y-91054285D01*
X159810952Y-91054285D02*
X159763333Y-91101904D01*
X159763333Y-91101904D02*
X159668095Y-91149523D01*
X159668095Y-91149523D02*
X159572857Y-91149523D01*
X159572857Y-91149523D02*
X159477619Y-91101904D01*
X159477619Y-91101904D02*
X159430000Y-91054285D01*
X159430000Y-91054285D02*
X159382380Y-90959047D01*
X159382380Y-90959047D02*
X159382380Y-90720952D01*
X159382380Y-90720952D02*
X159430000Y-90578095D01*
X159858571Y-90149523D02*
X159858571Y-89816190D01*
X160382380Y-89673333D02*
X160382380Y-90149523D01*
X160382380Y-90149523D02*
X159382380Y-90149523D01*
X159382380Y-90149523D02*
X159382380Y-89673333D01*
X160382380Y-89244761D02*
X159382380Y-89244761D01*
X159382380Y-89244761D02*
X160382380Y-88673333D01*
X160382380Y-88673333D02*
X159382380Y-88673333D01*
X160334761Y-88244761D02*
X160382380Y-88101904D01*
X160382380Y-88101904D02*
X160382380Y-87863809D01*
X160382380Y-87863809D02*
X160334761Y-87768571D01*
X160334761Y-87768571D02*
X160287142Y-87720952D01*
X160287142Y-87720952D02*
X160191904Y-87673333D01*
X160191904Y-87673333D02*
X160096666Y-87673333D01*
X160096666Y-87673333D02*
X160001428Y-87720952D01*
X160001428Y-87720952D02*
X159953809Y-87768571D01*
X159953809Y-87768571D02*
X159906190Y-87863809D01*
X159906190Y-87863809D02*
X159858571Y-88054285D01*
X159858571Y-88054285D02*
X159810952Y-88149523D01*
X159810952Y-88149523D02*
X159763333Y-88197142D01*
X159763333Y-88197142D02*
X159668095Y-88244761D01*
X159668095Y-88244761D02*
X159572857Y-88244761D01*
X159572857Y-88244761D02*
X159477619Y-88197142D01*
X159477619Y-88197142D02*
X159430000Y-88149523D01*
X159430000Y-88149523D02*
X159382380Y-88054285D01*
X159382380Y-88054285D02*
X159382380Y-87816190D01*
X159382380Y-87816190D02*
X159430000Y-87673333D01*
X159382380Y-87054285D02*
X159382380Y-86863809D01*
X159382380Y-86863809D02*
X159430000Y-86768571D01*
X159430000Y-86768571D02*
X159525238Y-86673333D01*
X159525238Y-86673333D02*
X159715714Y-86625714D01*
X159715714Y-86625714D02*
X160049047Y-86625714D01*
X160049047Y-86625714D02*
X160239523Y-86673333D01*
X160239523Y-86673333D02*
X160334761Y-86768571D01*
X160334761Y-86768571D02*
X160382380Y-86863809D01*
X160382380Y-86863809D02*
X160382380Y-87054285D01*
X160382380Y-87054285D02*
X160334761Y-87149523D01*
X160334761Y-87149523D02*
X160239523Y-87244761D01*
X160239523Y-87244761D02*
X160049047Y-87292380D01*
X160049047Y-87292380D02*
X159715714Y-87292380D01*
X159715714Y-87292380D02*
X159525238Y-87244761D01*
X159525238Y-87244761D02*
X159430000Y-87149523D01*
X159430000Y-87149523D02*
X159382380Y-87054285D01*
X160382380Y-85625714D02*
X159906190Y-85959047D01*
X160382380Y-86197142D02*
X159382380Y-86197142D01*
X159382380Y-86197142D02*
X159382380Y-85816190D01*
X159382380Y-85816190D02*
X159430000Y-85720952D01*
X159430000Y-85720952D02*
X159477619Y-85673333D01*
X159477619Y-85673333D02*
X159572857Y-85625714D01*
X159572857Y-85625714D02*
X159715714Y-85625714D01*
X159715714Y-85625714D02*
X159810952Y-85673333D01*
X159810952Y-85673333D02*
X159858571Y-85720952D01*
X159858571Y-85720952D02*
X159906190Y-85816190D01*
X159906190Y-85816190D02*
X159906190Y-86197142D01*
X160382380Y-84673333D02*
X160382380Y-85244761D01*
X160382380Y-84959047D02*
X159382380Y-84959047D01*
X159382380Y-84959047D02*
X159525238Y-85054285D01*
X159525238Y-85054285D02*
X159620476Y-85149523D01*
X159620476Y-85149523D02*
X159668095Y-85244761D01*
X104913333Y-64807380D02*
X104580000Y-64331190D01*
X104341905Y-64807380D02*
X104341905Y-63807380D01*
X104341905Y-63807380D02*
X104722857Y-63807380D01*
X104722857Y-63807380D02*
X104818095Y-63855000D01*
X104818095Y-63855000D02*
X104865714Y-63902619D01*
X104865714Y-63902619D02*
X104913333Y-63997857D01*
X104913333Y-63997857D02*
X104913333Y-64140714D01*
X104913333Y-64140714D02*
X104865714Y-64235952D01*
X104865714Y-64235952D02*
X104818095Y-64283571D01*
X104818095Y-64283571D02*
X104722857Y-64331190D01*
X104722857Y-64331190D02*
X104341905Y-64331190D01*
X105865714Y-64807380D02*
X105294286Y-64807380D01*
X105580000Y-64807380D02*
X105580000Y-63807380D01*
X105580000Y-63807380D02*
X105484762Y-63950238D01*
X105484762Y-63950238D02*
X105389524Y-64045476D01*
X105389524Y-64045476D02*
X105294286Y-64093095D01*
X125233333Y-67347380D02*
X124900000Y-66871190D01*
X124661905Y-67347380D02*
X124661905Y-66347380D01*
X124661905Y-66347380D02*
X125042857Y-66347380D01*
X125042857Y-66347380D02*
X125138095Y-66395000D01*
X125138095Y-66395000D02*
X125185714Y-66442619D01*
X125185714Y-66442619D02*
X125233333Y-66537857D01*
X125233333Y-66537857D02*
X125233333Y-66680714D01*
X125233333Y-66680714D02*
X125185714Y-66775952D01*
X125185714Y-66775952D02*
X125138095Y-66823571D01*
X125138095Y-66823571D02*
X125042857Y-66871190D01*
X125042857Y-66871190D02*
X124661905Y-66871190D01*
X126138095Y-66347380D02*
X125661905Y-66347380D01*
X125661905Y-66347380D02*
X125614286Y-66823571D01*
X125614286Y-66823571D02*
X125661905Y-66775952D01*
X125661905Y-66775952D02*
X125757143Y-66728333D01*
X125757143Y-66728333D02*
X125995238Y-66728333D01*
X125995238Y-66728333D02*
X126090476Y-66775952D01*
X126090476Y-66775952D02*
X126138095Y-66823571D01*
X126138095Y-66823571D02*
X126185714Y-66918809D01*
X126185714Y-66918809D02*
X126185714Y-67156904D01*
X126185714Y-67156904D02*
X126138095Y-67252142D01*
X126138095Y-67252142D02*
X126090476Y-67299761D01*
X126090476Y-67299761D02*
X125995238Y-67347380D01*
X125995238Y-67347380D02*
X125757143Y-67347380D01*
X125757143Y-67347380D02*
X125661905Y-67299761D01*
X125661905Y-67299761D02*
X125614286Y-67252142D01*
X182182380Y-60816904D02*
X182991904Y-60816904D01*
X182991904Y-60816904D02*
X183087142Y-60769285D01*
X183087142Y-60769285D02*
X183134761Y-60721666D01*
X183134761Y-60721666D02*
X183182380Y-60626428D01*
X183182380Y-60626428D02*
X183182380Y-60435952D01*
X183182380Y-60435952D02*
X183134761Y-60340714D01*
X183134761Y-60340714D02*
X183087142Y-60293095D01*
X183087142Y-60293095D02*
X182991904Y-60245476D01*
X182991904Y-60245476D02*
X182182380Y-60245476D01*
X183182380Y-59245476D02*
X183182380Y-59816904D01*
X183182380Y-59531190D02*
X182182380Y-59531190D01*
X182182380Y-59531190D02*
X182325238Y-59626428D01*
X182325238Y-59626428D02*
X182420476Y-59721666D01*
X182420476Y-59721666D02*
X182468095Y-59816904D01*
X105611905Y-50687380D02*
X105611905Y-49687380D01*
X105611905Y-49687380D02*
X105850000Y-49687380D01*
X105850000Y-49687380D02*
X105992857Y-49735000D01*
X105992857Y-49735000D02*
X106088095Y-49830238D01*
X106088095Y-49830238D02*
X106135714Y-49925476D01*
X106135714Y-49925476D02*
X106183333Y-50115952D01*
X106183333Y-50115952D02*
X106183333Y-50258809D01*
X106183333Y-50258809D02*
X106135714Y-50449285D01*
X106135714Y-50449285D02*
X106088095Y-50544523D01*
X106088095Y-50544523D02*
X105992857Y-50639761D01*
X105992857Y-50639761D02*
X105850000Y-50687380D01*
X105850000Y-50687380D02*
X105611905Y-50687380D01*
X107135714Y-50687380D02*
X106564286Y-50687380D01*
X106850000Y-50687380D02*
X106850000Y-49687380D01*
X106850000Y-49687380D02*
X106754762Y-49830238D01*
X106754762Y-49830238D02*
X106659524Y-49925476D01*
X106659524Y-49925476D02*
X106564286Y-49973095D01*
X132853333Y-69887380D02*
X132520000Y-69411190D01*
X132281905Y-69887380D02*
X132281905Y-68887380D01*
X132281905Y-68887380D02*
X132662857Y-68887380D01*
X132662857Y-68887380D02*
X132758095Y-68935000D01*
X132758095Y-68935000D02*
X132805714Y-68982619D01*
X132805714Y-68982619D02*
X132853333Y-69077857D01*
X132853333Y-69077857D02*
X132853333Y-69220714D01*
X132853333Y-69220714D02*
X132805714Y-69315952D01*
X132805714Y-69315952D02*
X132758095Y-69363571D01*
X132758095Y-69363571D02*
X132662857Y-69411190D01*
X132662857Y-69411190D02*
X132281905Y-69411190D01*
X133710476Y-69220714D02*
X133710476Y-69887380D01*
X133472381Y-68839761D02*
X133234286Y-69554047D01*
X133234286Y-69554047D02*
X133853333Y-69554047D01*
X153173333Y-87667380D02*
X152840000Y-87191190D01*
X152601905Y-87667380D02*
X152601905Y-86667380D01*
X152601905Y-86667380D02*
X152982857Y-86667380D01*
X152982857Y-86667380D02*
X153078095Y-86715000D01*
X153078095Y-86715000D02*
X153125714Y-86762619D01*
X153125714Y-86762619D02*
X153173333Y-86857857D01*
X153173333Y-86857857D02*
X153173333Y-87000714D01*
X153173333Y-87000714D02*
X153125714Y-87095952D01*
X153125714Y-87095952D02*
X153078095Y-87143571D01*
X153078095Y-87143571D02*
X152982857Y-87191190D01*
X152982857Y-87191190D02*
X152601905Y-87191190D01*
X153506667Y-86667380D02*
X154173333Y-86667380D01*
X154173333Y-86667380D02*
X153744762Y-87667380D01*
X129063333Y-75552142D02*
X129015714Y-75599761D01*
X129015714Y-75599761D02*
X128872857Y-75647380D01*
X128872857Y-75647380D02*
X128777619Y-75647380D01*
X128777619Y-75647380D02*
X128634762Y-75599761D01*
X128634762Y-75599761D02*
X128539524Y-75504523D01*
X128539524Y-75504523D02*
X128491905Y-75409285D01*
X128491905Y-75409285D02*
X128444286Y-75218809D01*
X128444286Y-75218809D02*
X128444286Y-75075952D01*
X128444286Y-75075952D02*
X128491905Y-74885476D01*
X128491905Y-74885476D02*
X128539524Y-74790238D01*
X128539524Y-74790238D02*
X128634762Y-74695000D01*
X128634762Y-74695000D02*
X128777619Y-74647380D01*
X128777619Y-74647380D02*
X128872857Y-74647380D01*
X128872857Y-74647380D02*
X129015714Y-74695000D01*
X129015714Y-74695000D02*
X129063333Y-74742619D01*
X129444286Y-74742619D02*
X129491905Y-74695000D01*
X129491905Y-74695000D02*
X129587143Y-74647380D01*
X129587143Y-74647380D02*
X129825238Y-74647380D01*
X129825238Y-74647380D02*
X129920476Y-74695000D01*
X129920476Y-74695000D02*
X129968095Y-74742619D01*
X129968095Y-74742619D02*
X130015714Y-74837857D01*
X130015714Y-74837857D02*
X130015714Y-74933095D01*
X130015714Y-74933095D02*
X129968095Y-75075952D01*
X129968095Y-75075952D02*
X129396667Y-75647380D01*
X129396667Y-75647380D02*
X130015714Y-75647380D01*
X107453333Y-82757380D02*
X107120000Y-82281190D01*
X106881905Y-82757380D02*
X106881905Y-81757380D01*
X106881905Y-81757380D02*
X107262857Y-81757380D01*
X107262857Y-81757380D02*
X107358095Y-81805000D01*
X107358095Y-81805000D02*
X107405714Y-81852619D01*
X107405714Y-81852619D02*
X107453333Y-81947857D01*
X107453333Y-81947857D02*
X107453333Y-82090714D01*
X107453333Y-82090714D02*
X107405714Y-82185952D01*
X107405714Y-82185952D02*
X107358095Y-82233571D01*
X107358095Y-82233571D02*
X107262857Y-82281190D01*
X107262857Y-82281190D02*
X106881905Y-82281190D01*
X107834286Y-81852619D02*
X107881905Y-81805000D01*
X107881905Y-81805000D02*
X107977143Y-81757380D01*
X107977143Y-81757380D02*
X108215238Y-81757380D01*
X108215238Y-81757380D02*
X108310476Y-81805000D01*
X108310476Y-81805000D02*
X108358095Y-81852619D01*
X108358095Y-81852619D02*
X108405714Y-81947857D01*
X108405714Y-81947857D02*
X108405714Y-82043095D01*
X108405714Y-82043095D02*
X108358095Y-82185952D01*
X108358095Y-82185952D02*
X107786667Y-82757380D01*
X107786667Y-82757380D02*
X108405714Y-82757380D01*
X145553333Y-85127380D02*
X145220000Y-84651190D01*
X144981905Y-85127380D02*
X144981905Y-84127380D01*
X144981905Y-84127380D02*
X145362857Y-84127380D01*
X145362857Y-84127380D02*
X145458095Y-84175000D01*
X145458095Y-84175000D02*
X145505714Y-84222619D01*
X145505714Y-84222619D02*
X145553333Y-84317857D01*
X145553333Y-84317857D02*
X145553333Y-84460714D01*
X145553333Y-84460714D02*
X145505714Y-84555952D01*
X145505714Y-84555952D02*
X145458095Y-84603571D01*
X145458095Y-84603571D02*
X145362857Y-84651190D01*
X145362857Y-84651190D02*
X144981905Y-84651190D01*
X146410476Y-84127380D02*
X146220000Y-84127380D01*
X146220000Y-84127380D02*
X146124762Y-84175000D01*
X146124762Y-84175000D02*
X146077143Y-84222619D01*
X146077143Y-84222619D02*
X145981905Y-84365476D01*
X145981905Y-84365476D02*
X145934286Y-84555952D01*
X145934286Y-84555952D02*
X145934286Y-84936904D01*
X145934286Y-84936904D02*
X145981905Y-85032142D01*
X145981905Y-85032142D02*
X146029524Y-85079761D01*
X146029524Y-85079761D02*
X146124762Y-85127380D01*
X146124762Y-85127380D02*
X146315238Y-85127380D01*
X146315238Y-85127380D02*
X146410476Y-85079761D01*
X146410476Y-85079761D02*
X146458095Y-85032142D01*
X146458095Y-85032142D02*
X146505714Y-84936904D01*
X146505714Y-84936904D02*
X146505714Y-84698809D01*
X146505714Y-84698809D02*
X146458095Y-84603571D01*
X146458095Y-84603571D02*
X146410476Y-84555952D01*
X146410476Y-84555952D02*
X146315238Y-84508333D01*
X146315238Y-84508333D02*
X146124762Y-84508333D01*
X146124762Y-84508333D02*
X146029524Y-84555952D01*
X146029524Y-84555952D02*
X145981905Y-84603571D01*
X145981905Y-84603571D02*
X145934286Y-84698809D01*
D13*
X129210000Y-98790000D02*
X147050000Y-98790000D01*
X129210000Y-98790000D02*
X129210000Y-96130000D01*
X147050000Y-98790000D02*
X147050000Y-96130000D01*
X126610000Y-97460000D02*
X126610000Y-96130000D01*
X126610000Y-96130000D02*
X127940000Y-96130000D01*
X129210000Y-96130000D02*
X147050000Y-96130000D01*
X152070000Y-98790000D02*
X164830000Y-98790000D01*
X152070000Y-98790000D02*
X152070000Y-96130000D01*
X164830000Y-98790000D02*
X164830000Y-96130000D01*
X149470000Y-97460000D02*
X149470000Y-96130000D01*
X149470000Y-96130000D02*
X150800000Y-96130000D01*
X152070000Y-96130000D02*
X164830000Y-96130000D01*
X120066000Y-50530000D02*
X142986000Y-50530000D01*
X120066000Y-50530000D02*
X120066000Y-47870000D01*
X142986000Y-50530000D02*
X142986000Y-47870000D01*
X117466000Y-49200000D02*
X117466000Y-47870000D01*
X117466000Y-47870000D02*
X118796000Y-47870000D01*
X120066000Y-47870000D02*
X142986000Y-47870000D01*
X146990000Y-50530000D02*
X164830000Y-50530000D01*
X146990000Y-50530000D02*
X146990000Y-47870000D01*
X164830000Y-50530000D02*
X164830000Y-47870000D01*
X144390000Y-49200000D02*
X144390000Y-47870000D01*
X144390000Y-47870000D02*
X145720000Y-47870000D01*
X146990000Y-47870000D02*
X164830000Y-47870000D01*
X103790000Y-90835000D02*
X103790000Y-93925000D01*
X109339999Y-92380462D02*
G75*
G03*
X103790001Y-90835170I-2989999J462D01*
G01*
X103790000Y-93924830D02*
G75*
G03*
X109340000Y-92379538I2560000J1544830D01*
G01*
X108850000Y-92380000D02*
G75*
G03*
X108850000Y-92380000I-2500000J0D01*
G01*
X143180000Y-71020000D02*
X143180000Y-70250000D01*
X141810000Y-70250000D02*
X144550000Y-70250000D01*
X144550000Y-70250000D02*
X144550000Y-63710000D01*
X141810000Y-63710000D02*
X141810000Y-70250000D01*
X144550000Y-63710000D02*
X141810000Y-63710000D01*
X143180000Y-62940000D02*
X143180000Y-63710000D01*
X135889759Y-88001000D02*
X136519759Y-88001000D01*
X136204759Y-87686000D02*
X136204759Y-88316000D01*
X139390000Y-86610000D02*
X139390000Y-93070000D01*
X139430000Y-86610000D02*
X139430000Y-93070000D01*
X139470000Y-86610000D02*
X139470000Y-93070000D01*
X139510000Y-86612000D02*
X139510000Y-93068000D01*
X139550000Y-86613000D02*
X139550000Y-93067000D01*
X139590000Y-86616000D02*
X139590000Y-93064000D01*
X139630000Y-86618000D02*
X139630000Y-88800000D01*
X139630000Y-90880000D02*
X139630000Y-93062000D01*
X139670000Y-86622000D02*
X139670000Y-88800000D01*
X139670000Y-90880000D02*
X139670000Y-93058000D01*
X139710000Y-86625000D02*
X139710000Y-88800000D01*
X139710000Y-90880000D02*
X139710000Y-93055000D01*
X139750000Y-86629000D02*
X139750000Y-88800000D01*
X139750000Y-90880000D02*
X139750000Y-93051000D01*
X139790000Y-86634000D02*
X139790000Y-88800000D01*
X139790000Y-90880000D02*
X139790000Y-93046000D01*
X139830000Y-86639000D02*
X139830000Y-88800000D01*
X139830000Y-90880000D02*
X139830000Y-93041000D01*
X139870000Y-86645000D02*
X139870000Y-88800000D01*
X139870000Y-90880000D02*
X139870000Y-93035000D01*
X139910000Y-86651000D02*
X139910000Y-88800000D01*
X139910000Y-90880000D02*
X139910000Y-93029000D01*
X139950000Y-86658000D02*
X139950000Y-88800000D01*
X139950000Y-90880000D02*
X139950000Y-93022000D01*
X139990000Y-86665000D02*
X139990000Y-88800000D01*
X139990000Y-90880000D02*
X139990000Y-93015000D01*
X140030000Y-86673000D02*
X140030000Y-88800000D01*
X140030000Y-90880000D02*
X140030000Y-93007000D01*
X140070000Y-86681000D02*
X140070000Y-88800000D01*
X140070000Y-90880000D02*
X140070000Y-92999000D01*
X140111000Y-86690000D02*
X140111000Y-88800000D01*
X140111000Y-90880000D02*
X140111000Y-92990000D01*
X140151000Y-86699000D02*
X140151000Y-88800000D01*
X140151000Y-90880000D02*
X140151000Y-92981000D01*
X140191000Y-86709000D02*
X140191000Y-88800000D01*
X140191000Y-90880000D02*
X140191000Y-92971000D01*
X140231000Y-86719000D02*
X140231000Y-88800000D01*
X140231000Y-90880000D02*
X140231000Y-92961000D01*
X140271000Y-86730000D02*
X140271000Y-88800000D01*
X140271000Y-90880000D02*
X140271000Y-92950000D01*
X140311000Y-86742000D02*
X140311000Y-88800000D01*
X140311000Y-90880000D02*
X140311000Y-92938000D01*
X140351000Y-86754000D02*
X140351000Y-88800000D01*
X140351000Y-90880000D02*
X140351000Y-92926000D01*
X140391000Y-86766000D02*
X140391000Y-88800000D01*
X140391000Y-90880000D02*
X140391000Y-92914000D01*
X140431000Y-86779000D02*
X140431000Y-88800000D01*
X140431000Y-90880000D02*
X140431000Y-92901000D01*
X140471000Y-86793000D02*
X140471000Y-88800000D01*
X140471000Y-90880000D02*
X140471000Y-92887000D01*
X140511000Y-86807000D02*
X140511000Y-88800000D01*
X140511000Y-90880000D02*
X140511000Y-92873000D01*
X140551000Y-86822000D02*
X140551000Y-88800000D01*
X140551000Y-90880000D02*
X140551000Y-92858000D01*
X140591000Y-86838000D02*
X140591000Y-88800000D01*
X140591000Y-90880000D02*
X140591000Y-92842000D01*
X140631000Y-86854000D02*
X140631000Y-88800000D01*
X140631000Y-90880000D02*
X140631000Y-92826000D01*
X140671000Y-86870000D02*
X140671000Y-88800000D01*
X140671000Y-90880000D02*
X140671000Y-92810000D01*
X140711000Y-86888000D02*
X140711000Y-88800000D01*
X140711000Y-90880000D02*
X140711000Y-92792000D01*
X140751000Y-86906000D02*
X140751000Y-88800000D01*
X140751000Y-90880000D02*
X140751000Y-92774000D01*
X140791000Y-86924000D02*
X140791000Y-88800000D01*
X140791000Y-90880000D02*
X140791000Y-92756000D01*
X140831000Y-86944000D02*
X140831000Y-88800000D01*
X140831000Y-90880000D02*
X140831000Y-92736000D01*
X140871000Y-86964000D02*
X140871000Y-88800000D01*
X140871000Y-90880000D02*
X140871000Y-92716000D01*
X140911000Y-86984000D02*
X140911000Y-88800000D01*
X140911000Y-90880000D02*
X140911000Y-92696000D01*
X140951000Y-87006000D02*
X140951000Y-88800000D01*
X140951000Y-90880000D02*
X140951000Y-92674000D01*
X140991000Y-87028000D02*
X140991000Y-88800000D01*
X140991000Y-90880000D02*
X140991000Y-92652000D01*
X141031000Y-87050000D02*
X141031000Y-88800000D01*
X141031000Y-90880000D02*
X141031000Y-92630000D01*
X141071000Y-87074000D02*
X141071000Y-88800000D01*
X141071000Y-90880000D02*
X141071000Y-92606000D01*
X141111000Y-87098000D02*
X141111000Y-88800000D01*
X141111000Y-90880000D02*
X141111000Y-92582000D01*
X141151000Y-87124000D02*
X141151000Y-88800000D01*
X141151000Y-90880000D02*
X141151000Y-92556000D01*
X141191000Y-87150000D02*
X141191000Y-88800000D01*
X141191000Y-90880000D02*
X141191000Y-92530000D01*
X141231000Y-87176000D02*
X141231000Y-88800000D01*
X141231000Y-90880000D02*
X141231000Y-92504000D01*
X141271000Y-87204000D02*
X141271000Y-88800000D01*
X141271000Y-90880000D02*
X141271000Y-92476000D01*
X141311000Y-87233000D02*
X141311000Y-88800000D01*
X141311000Y-90880000D02*
X141311000Y-92447000D01*
X141351000Y-87262000D02*
X141351000Y-88800000D01*
X141351000Y-90880000D02*
X141351000Y-92418000D01*
X141391000Y-87292000D02*
X141391000Y-88800000D01*
X141391000Y-90880000D02*
X141391000Y-92388000D01*
X141431000Y-87324000D02*
X141431000Y-88800000D01*
X141431000Y-90880000D02*
X141431000Y-92356000D01*
X141471000Y-87356000D02*
X141471000Y-88800000D01*
X141471000Y-90880000D02*
X141471000Y-92324000D01*
X141511000Y-87390000D02*
X141511000Y-88800000D01*
X141511000Y-90880000D02*
X141511000Y-92290000D01*
X141551000Y-87424000D02*
X141551000Y-88800000D01*
X141551000Y-90880000D02*
X141551000Y-92256000D01*
X141591000Y-87460000D02*
X141591000Y-88800000D01*
X141591000Y-90880000D02*
X141591000Y-92220000D01*
X141631000Y-87497000D02*
X141631000Y-88800000D01*
X141631000Y-90880000D02*
X141631000Y-92183000D01*
X141671000Y-87535000D02*
X141671000Y-88800000D01*
X141671000Y-90880000D02*
X141671000Y-92145000D01*
X141711000Y-87575000D02*
X141711000Y-92105000D01*
X141751000Y-87616000D02*
X141751000Y-92064000D01*
X141791000Y-87658000D02*
X141791000Y-92022000D01*
X141831000Y-87703000D02*
X141831000Y-91977000D01*
X141871000Y-87748000D02*
X141871000Y-91932000D01*
X141911000Y-87796000D02*
X141911000Y-91884000D01*
X141951000Y-87845000D02*
X141951000Y-91835000D01*
X141991000Y-87896000D02*
X141991000Y-91784000D01*
X142031000Y-87950000D02*
X142031000Y-91730000D01*
X142071000Y-88006000D02*
X142071000Y-91674000D01*
X142111000Y-88064000D02*
X142111000Y-91616000D01*
X142151000Y-88126000D02*
X142151000Y-91554000D01*
X142191000Y-88190000D02*
X142191000Y-91490000D01*
X142231000Y-88259000D02*
X142231000Y-91421000D01*
X142271000Y-88331000D02*
X142271000Y-91349000D01*
X142311000Y-88408000D02*
X142311000Y-91272000D01*
X142351000Y-88490000D02*
X142351000Y-91190000D01*
X142391000Y-88578000D02*
X142391000Y-91102000D01*
X142431000Y-88675000D02*
X142431000Y-91005000D01*
X142471000Y-88781000D02*
X142471000Y-90899000D01*
X142511000Y-88900000D02*
X142511000Y-90780000D01*
X142551000Y-89038000D02*
X142551000Y-90642000D01*
X142591000Y-89207000D02*
X142591000Y-90473000D01*
X142631000Y-89438000D02*
X142631000Y-90242000D01*
X142660000Y-89840000D02*
G75*
G03*
X142660000Y-89840000I-3270000J0D01*
G01*
D14*
X161350000Y-87680000D02*
X161350000Y-77680000D01*
X166450000Y-87680000D02*
X161350000Y-87680000D01*
X161350000Y-77680000D02*
X166450000Y-77680000D01*
X166450000Y-77680000D02*
X166450000Y-87680000D01*
D15*
X163600000Y-88480000D02*
G75*
G03*
X163600000Y-88480000I-100000J0D01*
G01*
D13*
X103580000Y-61900000D02*
X104350000Y-61900000D01*
X104350000Y-60530000D02*
X104350000Y-63270000D01*
X104350000Y-63270000D02*
X110890000Y-63270000D01*
X110890000Y-60530000D02*
X104350000Y-60530000D01*
X110890000Y-63270000D02*
X110890000Y-60530000D01*
X111660000Y-61900000D02*
X110890000Y-61900000D01*
G36*
X111751849Y-80618364D02*
G01*
X111746413Y-80623801D01*
X111740976Y-80618364D01*
X111746413Y-80612928D01*
X111751849Y-80618364D01*
G37*
G36*
X111645835Y-80449006D02*
G01*
X111665351Y-80467075D01*
X111675380Y-80478048D01*
X111675736Y-80478907D01*
X111671737Y-80481726D01*
X111658302Y-80470058D01*
X111642293Y-80452547D01*
X111615933Y-80422645D01*
X111645835Y-80449006D01*
G37*
G36*
X103293508Y-70670248D02*
G01*
X103434405Y-70670248D01*
X103445173Y-70829222D01*
X103468090Y-70988156D01*
X103479033Y-71043200D01*
X103523639Y-71211022D01*
X103582157Y-71362142D01*
X103654635Y-71496611D01*
X103741121Y-71614479D01*
X103841660Y-71715797D01*
X103956300Y-71800615D01*
X104085087Y-71868984D01*
X104228070Y-71920955D01*
X104314520Y-71942950D01*
X104381188Y-71953588D01*
X104464061Y-71960643D01*
X104557901Y-71964154D01*
X104657472Y-71964162D01*
X104757534Y-71960709D01*
X104852851Y-71953835D01*
X104938186Y-71943582D01*
X104972257Y-71937815D01*
X105123630Y-71904962D01*
X105263061Y-71866158D01*
X105377667Y-71825930D01*
X105416294Y-71811123D01*
X105447170Y-71800111D01*
X105464689Y-71794873D01*
X105466159Y-71794691D01*
X105465639Y-71803925D01*
X105457367Y-71829098D01*
X105442736Y-71866422D01*
X105423141Y-71912108D01*
X105422064Y-71914526D01*
X105365593Y-72061968D01*
X105320462Y-72224363D01*
X105287563Y-72397588D01*
X105267793Y-72577522D01*
X105264076Y-72642808D01*
X105264199Y-72805285D01*
X105279057Y-72953067D01*
X105308547Y-73085798D01*
X105352566Y-73203123D01*
X105411014Y-73304686D01*
X105476924Y-73383383D01*
X105516177Y-73419594D01*
X105557668Y-73452973D01*
X105594128Y-73477802D01*
X105603536Y-73483002D01*
X105700968Y-73521916D01*
X105810223Y-73547458D01*
X105925527Y-73559033D01*
X106041105Y-73556045D01*
X106146669Y-73538992D01*
X106259485Y-73501010D01*
X106365137Y-73442889D01*
X106462910Y-73365260D01*
X106552087Y-73268752D01*
X106631953Y-73153994D01*
X106677508Y-73071936D01*
X106695257Y-73036198D01*
X106711098Y-73001969D01*
X106725832Y-72966725D01*
X106740263Y-72927940D01*
X106755192Y-72883091D01*
X106771421Y-72829652D01*
X106789752Y-72765099D01*
X106810988Y-72686907D01*
X106835930Y-72592550D01*
X106863917Y-72485145D01*
X106876218Y-72438221D01*
X106886871Y-72398456D01*
X106894473Y-72371042D01*
X106897179Y-72362115D01*
X106903816Y-72365031D01*
X106917805Y-72384118D01*
X106936915Y-72416023D01*
X106953341Y-72446491D01*
X107037780Y-72586605D01*
X107140643Y-72718308D01*
X107259675Y-72839931D01*
X107392625Y-72949802D01*
X107537240Y-73046250D01*
X107691266Y-73127606D01*
X107852452Y-73192199D01*
X108018544Y-73238358D01*
X108022311Y-73239169D01*
X108166947Y-73264287D01*
X108312228Y-73278462D01*
X108453483Y-73281612D01*
X108586042Y-73273654D01*
X108705233Y-73254506D01*
X108718202Y-73251504D01*
X108852481Y-73208380D01*
X108982334Y-73145406D01*
X109106364Y-73064266D01*
X109223176Y-72966644D01*
X109331372Y-72854224D01*
X109429558Y-72728690D01*
X109516335Y-72591727D01*
X109590309Y-72445018D01*
X109650083Y-72290248D01*
X109694260Y-72129101D01*
X109708281Y-72057288D01*
X109728355Y-71876454D01*
X109727127Y-71695193D01*
X109704935Y-71515249D01*
X109662114Y-71338365D01*
X109599002Y-71166283D01*
X109515934Y-71000747D01*
X109498515Y-70971160D01*
X109386574Y-70803195D01*
X109262302Y-70649445D01*
X109127133Y-70511130D01*
X108982502Y-70389476D01*
X108829845Y-70285705D01*
X108670597Y-70201040D01*
X108527919Y-70143913D01*
X108367326Y-70098496D01*
X108202483Y-70069492D01*
X108037044Y-70057017D01*
X107874657Y-70061181D01*
X107718976Y-70082098D01*
X107589081Y-70114876D01*
X107548042Y-70127246D01*
X107515620Y-70135895D01*
X107496777Y-70139549D01*
X107494092Y-70139275D01*
X107494603Y-70127607D01*
X107499233Y-70099195D01*
X107507183Y-70058475D01*
X107516254Y-70016156D01*
X107549371Y-69828126D01*
X107562968Y-69649633D01*
X107557037Y-69480611D01*
X107531571Y-69320997D01*
X107486563Y-69170728D01*
X107422007Y-69029740D01*
X107400691Y-68992361D01*
X107364860Y-68941148D01*
X107316088Y-68883679D01*
X107259757Y-68825418D01*
X107201243Y-68771830D01*
X107145927Y-68728378D01*
X107130702Y-68718098D01*
X107014987Y-68652874D01*
X106885558Y-68596151D01*
X106749690Y-68550745D01*
X106619657Y-68520361D01*
X106559883Y-68512750D01*
X106484524Y-68507921D01*
X106399558Y-68505818D01*
X106310961Y-68506383D01*
X106224709Y-68509562D01*
X106146780Y-68515296D01*
X106083149Y-68523529D01*
X106072304Y-68525542D01*
X105916583Y-68565024D01*
X105767759Y-68619518D01*
X105627783Y-68687604D01*
X105498606Y-68767864D01*
X105382180Y-68858880D01*
X105280457Y-68959234D01*
X105195387Y-69067508D01*
X105128922Y-69182283D01*
X105109888Y-69225012D01*
X105065970Y-69354339D01*
X105041718Y-69482259D01*
X105036963Y-69611927D01*
X105051538Y-69746497D01*
X105076293Y-69857173D01*
X105106960Y-69949216D01*
X105146330Y-70026047D01*
X105197480Y-70093459D01*
X105207535Y-70104365D01*
X105276949Y-70162638D01*
X105356781Y-70202201D01*
X105446218Y-70222964D01*
X105544442Y-70224834D01*
X105650639Y-70207722D01*
X105763993Y-70171537D01*
X105774415Y-70167384D01*
X105816062Y-70151059D01*
X105849419Y-70138997D01*
X105869921Y-70132794D01*
X105874121Y-70132509D01*
X105874692Y-70144290D01*
X105873427Y-70173162D01*
X105870584Y-70214568D01*
X105867127Y-70256121D01*
X105862496Y-70333397D01*
X105860773Y-70423279D01*
X105861764Y-70519789D01*
X105865273Y-70616951D01*
X105871104Y-70708787D01*
X105879062Y-70789322D01*
X105886155Y-70837842D01*
X105922980Y-70998181D01*
X105974108Y-71143361D01*
X106039224Y-71272939D01*
X106118013Y-71386468D01*
X106210161Y-71483505D01*
X106315355Y-71563605D01*
X106433278Y-71626321D01*
X106447787Y-71632459D01*
X106550211Y-71666590D01*
X106656415Y-71687172D01*
X106764291Y-71694992D01*
X106871731Y-71690836D01*
X106976628Y-71675490D01*
X107076873Y-71649741D01*
X107170360Y-71614374D01*
X107254981Y-71570176D01*
X107328629Y-71517934D01*
X107389195Y-71458433D01*
X107434572Y-71392460D01*
X107462652Y-71320801D01*
X107471398Y-71250580D01*
X107460908Y-71179379D01*
X107430428Y-71106657D01*
X107381443Y-71034322D01*
X107315436Y-70964280D01*
X107233892Y-70898439D01*
X107160603Y-70851310D01*
X107123235Y-70828520D01*
X107094366Y-70808913D01*
X107078272Y-70795487D01*
X107076335Y-70792215D01*
X107086248Y-70787389D01*
X107113694Y-70787910D01*
X107155232Y-70793376D01*
X107207422Y-70803383D01*
X107244499Y-70811906D01*
X107334397Y-70843838D01*
X107417808Y-70892720D01*
X107490661Y-70955309D01*
X107548885Y-71028364D01*
X107574549Y-71074683D01*
X107588075Y-71105995D01*
X107596667Y-71134517D01*
X107601406Y-71166811D01*
X107603377Y-71209441D01*
X107603690Y-71251256D01*
X107603219Y-71304192D01*
X107600959Y-71342089D01*
X107595640Y-71371649D01*
X107585991Y-71399575D01*
X107570742Y-71432567D01*
X107568428Y-71437280D01*
X107514946Y-71522347D01*
X107442751Y-71600451D01*
X107354174Y-71670104D01*
X107251549Y-71729816D01*
X107137208Y-71778098D01*
X107013485Y-71813460D01*
X106963793Y-71823323D01*
X106831003Y-71836722D01*
X106692787Y-71832665D01*
X106555088Y-71811904D01*
X106423848Y-71775192D01*
X106350333Y-71745665D01*
X106256660Y-71693923D01*
X106162840Y-71625363D01*
X106073629Y-71544352D01*
X105993786Y-71455257D01*
X105928070Y-71362446D01*
X105922211Y-71352711D01*
X105862623Y-71241982D01*
X105814623Y-71129541D01*
X105777288Y-71011761D01*
X105749694Y-70885014D01*
X105730919Y-70745674D01*
X105720041Y-70590113D01*
X105718581Y-70552322D01*
X105715588Y-70479816D01*
X105712011Y-70421022D01*
X105708038Y-70378104D01*
X105703856Y-70353230D01*
X105700865Y-70347710D01*
X105685705Y-70348865D01*
X105654774Y-70352497D01*
X105613813Y-70357914D01*
X105598272Y-70360089D01*
X105482143Y-70366989D01*
X105374147Y-70354062D01*
X105275058Y-70321945D01*
X105185646Y-70271274D01*
X105106685Y-70202685D01*
X105038947Y-70116813D01*
X104983205Y-70014297D01*
X104940230Y-69895771D01*
X104917302Y-69799176D01*
X104908145Y-69735358D01*
X104902182Y-69660762D01*
X104899526Y-69582094D01*
X104900287Y-69506058D01*
X104904577Y-69439362D01*
X104910644Y-69397140D01*
X104916390Y-69365774D01*
X104919108Y-69344817D01*
X104918861Y-69340013D01*
X104901407Y-69332957D01*
X104867007Y-69326818D01*
X104820457Y-69321988D01*
X104766552Y-69318862D01*
X104710085Y-69317833D01*
X104662466Y-69318957D01*
X104502613Y-69334998D01*
X104350622Y-69368370D01*
X104201404Y-69420416D01*
X104096836Y-69468200D01*
X103954617Y-69550350D01*
X103829048Y-69646483D01*
X103720218Y-69756490D01*
X103628215Y-69880262D01*
X103553127Y-70017690D01*
X103495043Y-70168663D01*
X103475211Y-70238129D01*
X103449402Y-70370197D01*
X103435807Y-70515738D01*
X103434405Y-70670248D01*
X103293508Y-70670248D01*
X103292872Y-70619590D01*
X103294218Y-70530261D01*
X103297969Y-70446677D01*
X103304069Y-70375057D01*
X103308444Y-70342783D01*
X103346806Y-70169158D01*
X103403340Y-70007095D01*
X103477413Y-69857241D01*
X103568391Y-69720240D01*
X103675640Y-69596737D01*
X103798525Y-69487376D01*
X103936413Y-69392802D01*
X104088670Y-69313659D01*
X104254661Y-69250594D01*
X104426641Y-69205713D01*
X104506123Y-69193123D01*
X104599104Y-69184682D01*
X104697683Y-69180679D01*
X104793959Y-69181403D01*
X104880028Y-69187144D01*
X104892995Y-69188630D01*
X104965862Y-69197594D01*
X105008789Y-69112215D01*
X105085372Y-68983283D01*
X105180753Y-68862098D01*
X105292834Y-68750378D01*
X105419520Y-68649842D01*
X105558713Y-68562210D01*
X105708316Y-68489198D01*
X105820471Y-68446923D01*
X105916069Y-68417181D01*
X106002832Y-68395196D01*
X106087226Y-68379971D01*
X106175720Y-68370510D01*
X106274779Y-68365817D01*
X106353262Y-68364836D01*
X106441644Y-68365328D01*
X106512865Y-68367423D01*
X106571470Y-68371402D01*
X106622004Y-68377551D01*
X106657714Y-68383831D01*
X106830161Y-68426077D01*
X106985866Y-68481209D01*
X107126042Y-68549847D01*
X107251905Y-68632610D01*
X107364667Y-68730118D01*
X107392801Y-68758818D01*
X107485844Y-68870519D01*
X107561939Y-68991748D01*
X107621346Y-69123444D01*
X107664326Y-69266543D01*
X107691140Y-69421984D01*
X107702049Y-69590704D01*
X107697315Y-69773639D01*
X107692514Y-69835605D01*
X107683478Y-69937007D01*
X107774063Y-69928028D01*
X107870499Y-69921369D01*
X107975305Y-69919123D01*
X108082033Y-69921091D01*
X108184233Y-69927076D01*
X108275457Y-69936881D01*
X108324104Y-69944875D01*
X108514371Y-69992601D01*
X108696536Y-70060323D01*
X108870933Y-70148208D01*
X109037894Y-70256424D01*
X109196627Y-70384138D01*
X109347710Y-70531141D01*
X109480544Y-70687366D01*
X109594673Y-70851804D01*
X109689643Y-71023450D01*
X109765001Y-71201295D01*
X109820291Y-71384332D01*
X109855060Y-71571554D01*
X109868852Y-71761954D01*
X109867188Y-71870805D01*
X109848333Y-72059219D01*
X109810289Y-72242853D01*
X109754023Y-72419987D01*
X109680499Y-72588902D01*
X109590683Y-72747880D01*
X109485540Y-72895201D01*
X109366037Y-73029148D01*
X109233139Y-73148001D01*
X109094819Y-73245701D01*
X108967957Y-73315022D01*
X108836822Y-73366768D01*
X108698356Y-73401730D01*
X108549502Y-73420698D01*
X108402877Y-73424734D01*
X108260652Y-73419142D01*
X108131428Y-73405536D01*
X108007537Y-73382656D01*
X107881309Y-73349241D01*
X107814576Y-73328075D01*
X107730374Y-73297288D01*
X107641637Y-73260004D01*
X107555584Y-73219534D01*
X107479436Y-73179192D01*
X107444341Y-73158224D01*
X107417275Y-73142394D01*
X107397568Y-73133116D01*
X107393314Y-73132106D01*
X107384568Y-73141957D01*
X107371078Y-73169136D01*
X107354152Y-73210086D01*
X107335098Y-73261247D01*
X107315221Y-73319061D01*
X107295830Y-73379967D01*
X107278230Y-73440408D01*
X107273109Y-73459380D01*
X107241171Y-73592764D01*
X107216091Y-73726647D01*
X107197433Y-73865101D01*
X107184758Y-74012202D01*
X107177628Y-74172021D01*
X107175605Y-74348633D01*
X107175662Y-74366224D01*
X107176558Y-74483228D01*
X107178187Y-74579796D01*
X107180630Y-74657229D01*
X107183967Y-74716830D01*
X107188282Y-74759898D01*
X107193656Y-74787736D01*
X107200169Y-74801644D01*
X107203067Y-74803583D01*
X107213842Y-74796992D01*
X107225463Y-74775496D01*
X107228694Y-74766380D01*
X107240125Y-74736883D01*
X107260184Y-74691995D01*
X107287034Y-74635385D01*
X107318837Y-74570723D01*
X107353754Y-74501681D01*
X107389946Y-74431927D01*
X107425576Y-74365132D01*
X107458804Y-74304967D01*
X107467254Y-74290111D01*
X107512113Y-74212469D01*
X107557905Y-74134351D01*
X107603267Y-74057977D01*
X107646836Y-73985570D01*
X107687250Y-73919349D01*
X107723145Y-73861537D01*
X107753159Y-73814354D01*
X107775929Y-73780022D01*
X107790092Y-73760761D01*
X107794123Y-73757413D01*
X107798431Y-73769674D01*
X107803302Y-73798237D01*
X107807879Y-73837701D01*
X107809164Y-73852025D01*
X107823321Y-73985200D01*
X107844516Y-74133801D01*
X107871824Y-74293014D01*
X107904321Y-74458030D01*
X107941082Y-74624035D01*
X107981181Y-74786220D01*
X108007302Y-74882705D01*
X108117565Y-75240523D01*
X108248689Y-75602840D01*
X108400409Y-75968986D01*
X108572462Y-76338291D01*
X108605529Y-76404965D01*
X108816145Y-76805374D01*
X109048049Y-77207655D01*
X109300904Y-77611354D01*
X109574377Y-78016017D01*
X109868132Y-78421190D01*
X110181833Y-78826419D01*
X110515147Y-79231250D01*
X110867739Y-79635228D01*
X111239272Y-80037900D01*
X111436038Y-80242714D01*
X111484073Y-80292226D01*
X111526532Y-80336330D01*
X111561220Y-80372717D01*
X111585940Y-80399077D01*
X111598497Y-80413102D01*
X111599623Y-80414728D01*
X111591958Y-80410505D01*
X111570005Y-80392827D01*
X111535327Y-80363127D01*
X111489489Y-80322840D01*
X111434054Y-80273399D01*
X111370586Y-80216235D01*
X111300649Y-80152784D01*
X111225805Y-80084478D01*
X111147619Y-80012749D01*
X111067655Y-79939033D01*
X110987476Y-79864760D01*
X110908645Y-79791366D01*
X110832727Y-79720283D01*
X110761286Y-79652944D01*
X110695884Y-79590783D01*
X110638086Y-79535233D01*
X110606016Y-79504016D01*
X110506754Y-79405635D01*
X110400038Y-79297785D01*
X110287943Y-79182692D01*
X110172545Y-79062585D01*
X110055919Y-78939690D01*
X109940141Y-78816236D01*
X109827287Y-78694450D01*
X109719432Y-78576559D01*
X109618652Y-78464790D01*
X109527023Y-78361372D01*
X109446620Y-78268532D01*
X109379519Y-78188496D01*
X109374816Y-78182748D01*
X109142711Y-77892772D01*
X108928349Y-77612969D01*
X108730952Y-77342109D01*
X108549745Y-77078967D01*
X108383951Y-76822313D01*
X108232793Y-76570920D01*
X108095495Y-76323560D01*
X107971280Y-76079006D01*
X107859371Y-75836029D01*
X107796518Y-75687328D01*
X107750657Y-75570041D01*
X107706954Y-75448701D01*
X107666581Y-75327179D01*
X107630709Y-75209347D01*
X107600510Y-75099074D01*
X107577155Y-75000230D01*
X107561816Y-74916687D01*
X107560548Y-74907717D01*
X107552732Y-74865279D01*
X107542195Y-74842708D01*
X107526929Y-74839741D01*
X107504926Y-74856118D01*
X107474178Y-74891573D01*
X107470699Y-74895963D01*
X107411883Y-74974141D01*
X107353791Y-75058979D01*
X107295074Y-75152807D01*
X107234384Y-75257956D01*
X107170373Y-75376755D01*
X107101692Y-75511536D01*
X107032013Y-75654168D01*
X106997927Y-75724455D01*
X106966475Y-75788051D01*
X106938981Y-75842382D01*
X106916765Y-75884877D01*
X106901151Y-75912960D01*
X106893459Y-75924059D01*
X106893336Y-75924113D01*
X106885812Y-75918722D01*
X106874177Y-75898200D01*
X106858070Y-75861616D01*
X106837128Y-75808040D01*
X106810989Y-75736539D01*
X106779290Y-75646184D01*
X106741668Y-75536042D01*
X106737676Y-75524229D01*
X106640029Y-75217659D01*
X106549443Y-74896949D01*
X106465441Y-74560218D01*
X106387544Y-74205585D01*
X106336753Y-73947602D01*
X106324555Y-73882853D01*
X106312883Y-73821034D01*
X106302710Y-73767284D01*
X106295007Y-73726740D01*
X106292018Y-73711108D01*
X106282340Y-73674819D01*
X106271137Y-73656001D01*
X106266179Y-73654024D01*
X106248650Y-73656512D01*
X106216897Y-73663040D01*
X106177754Y-73672202D01*
X106177246Y-73672328D01*
X106120122Y-73682180D01*
X106048107Y-73688262D01*
X105967727Y-73690575D01*
X105885508Y-73689122D01*
X105807975Y-73683903D01*
X105741653Y-73674922D01*
X105728048Y-73672189D01*
X105610493Y-73635924D01*
X105503532Y-73581148D01*
X105408203Y-73508886D01*
X105325540Y-73420160D01*
X105256579Y-73315994D01*
X105202358Y-73197411D01*
X105180650Y-73131496D01*
X105153714Y-73011403D01*
X105137290Y-72876272D01*
X105131222Y-72730014D01*
X105135355Y-72576542D01*
X105149531Y-72419768D01*
X105173594Y-72263602D01*
X105207388Y-72111957D01*
X105223745Y-72052932D01*
X105219636Y-72038771D01*
X105197604Y-72033679D01*
X105159553Y-72037784D01*
X105124580Y-72046152D01*
X105097155Y-72052559D01*
X105054010Y-72061208D01*
X105000910Y-72070997D01*
X104943624Y-72080824D01*
X104939734Y-72081464D01*
X104798382Y-72104649D01*
X104801590Y-72169855D01*
X104809196Y-72272995D01*
X104822476Y-72393984D01*
X104840886Y-72529833D01*
X104863877Y-72677552D01*
X104890903Y-72834152D01*
X104921418Y-72996645D01*
X104954875Y-73162042D01*
X104990728Y-73327352D01*
X105028429Y-73489588D01*
X105067433Y-73645761D01*
X105080708Y-73696248D01*
X105151181Y-73949174D01*
X105229455Y-74209304D01*
X105313779Y-74471450D01*
X105402401Y-74730427D01*
X105493568Y-74981046D01*
X105585531Y-75218120D01*
X105637113Y-75343962D01*
X105702641Y-75500174D01*
X105761044Y-75638746D01*
X105813446Y-75762161D01*
X105860970Y-75872901D01*
X105904738Y-75973450D01*
X105945873Y-76066289D01*
X105985498Y-76153901D01*
X106024737Y-76238769D01*
X106064711Y-76323376D01*
X106106544Y-76410203D01*
X106151359Y-76501734D01*
X106200278Y-76600451D01*
X106254424Y-76708836D01*
X106254715Y-76709418D01*
X106314165Y-76827431D01*
X106371305Y-76939602D01*
X106425308Y-77044378D01*
X106475346Y-77140209D01*
X106520589Y-77225542D01*
X106560209Y-77298827D01*
X106593379Y-77358513D01*
X106619268Y-77403048D01*
X106637050Y-77430881D01*
X106644940Y-77440117D01*
X106662245Y-77440273D01*
X106669873Y-77434816D01*
X106676483Y-77421502D01*
X106689202Y-77390344D01*
X106707013Y-77344043D01*
X106728899Y-77285300D01*
X106753843Y-77216817D01*
X106780827Y-77141296D01*
X106787431Y-77122602D01*
X106863463Y-76909107D01*
X106936124Y-76709525D01*
X107005019Y-76524869D01*
X107069753Y-76356154D01*
X107129932Y-76204394D01*
X107185162Y-76070603D01*
X107235047Y-75955795D01*
X107273779Y-75872174D01*
X107339150Y-75736258D01*
X107390539Y-75883048D01*
X107474735Y-76101433D01*
X107577204Y-76328561D01*
X107697024Y-76562956D01*
X107833269Y-76803142D01*
X107985018Y-77047643D01*
X108151348Y-77294984D01*
X108331334Y-77543690D01*
X108524054Y-77792283D01*
X108728584Y-78039290D01*
X108769037Y-78086304D01*
X109033453Y-78379818D01*
X109318226Y-78673283D01*
X109621993Y-78965521D01*
X109943394Y-79255354D01*
X110281067Y-79541605D01*
X110633650Y-79823096D01*
X110999783Y-80098650D01*
X111378104Y-80367089D01*
X111507463Y-80455310D01*
X111588630Y-80510214D01*
X111651700Y-80553201D01*
X111696673Y-80584414D01*
X111723546Y-80603997D01*
X111732319Y-80612092D01*
X111722991Y-80608845D01*
X111695560Y-80594397D01*
X111650026Y-80568894D01*
X111586386Y-80532477D01*
X111507200Y-80486773D01*
X111180246Y-80295003D01*
X110872221Y-80108730D01*
X110581370Y-79926744D01*
X110305938Y-79747833D01*
X110044167Y-79570787D01*
X109794302Y-79394394D01*
X109554586Y-79217444D01*
X109323264Y-79038725D01*
X109098579Y-78857028D01*
X108897611Y-78687391D01*
X108645651Y-78462910D01*
X108411417Y-78238787D01*
X108195556Y-78015734D01*
X107998714Y-77794463D01*
X107821536Y-77575686D01*
X107664668Y-77360115D01*
X107586666Y-77242209D01*
X107544807Y-77174036D01*
X107501621Y-77099311D01*
X107459713Y-77022916D01*
X107421689Y-76949739D01*
X107390155Y-76884664D01*
X107367716Y-76832576D01*
X107366557Y-76829553D01*
X107352434Y-76799427D01*
X107340934Y-76790028D01*
X107337502Y-76791847D01*
X107326302Y-76810608D01*
X107310394Y-76848142D01*
X107290483Y-76902157D01*
X107267272Y-76970363D01*
X107241466Y-77050469D01*
X107213768Y-77140185D01*
X107184882Y-77237221D01*
X107155512Y-77339285D01*
X107126362Y-77444088D01*
X107098135Y-77549338D01*
X107071537Y-77652745D01*
X107065447Y-77677140D01*
X107041376Y-77777829D01*
X107015131Y-77893994D01*
X106987662Y-78020932D01*
X106959921Y-78153936D01*
X106932860Y-78288302D01*
X106907430Y-78419323D01*
X106884583Y-78542293D01*
X106865269Y-78652509D01*
X106853330Y-78726204D01*
X106843828Y-78786806D01*
X106835278Y-78839443D01*
X106828283Y-78880556D01*
X106823445Y-78906588D01*
X106821525Y-78914171D01*
X106812551Y-78908429D01*
X106791474Y-78887677D01*
X106759889Y-78853790D01*
X106719394Y-78808648D01*
X106671584Y-78754127D01*
X106618055Y-78692106D01*
X106560405Y-78624460D01*
X106500230Y-78553069D01*
X106439125Y-78479809D01*
X106378688Y-78406558D01*
X106320515Y-78335193D01*
X106266202Y-78267592D01*
X106217345Y-78205633D01*
X106199610Y-78182748D01*
X105936226Y-77824627D01*
X105684306Y-77449268D01*
X105444853Y-77058499D01*
X105218870Y-76654147D01*
X105007361Y-76238040D01*
X104811329Y-75812005D01*
X104631777Y-75377869D01*
X104567236Y-75208904D01*
X104438774Y-74844819D01*
X104318970Y-74465166D01*
X104209069Y-74074818D01*
X104110314Y-73678649D01*
X104023948Y-73281534D01*
X103951215Y-72888346D01*
X103912655Y-72642808D01*
X103900380Y-72555317D01*
X103888172Y-72462387D01*
X103876407Y-72367422D01*
X103865460Y-72273827D01*
X103855705Y-72185004D01*
X103847517Y-72104359D01*
X103841271Y-72035295D01*
X103837342Y-71981218D01*
X103836096Y-71947534D01*
X103835400Y-71921737D01*
X103831101Y-71902726D01*
X103819882Y-71885416D01*
X103798424Y-71864721D01*
X103763412Y-71835553D01*
X103762652Y-71834932D01*
X103659712Y-71736950D01*
X103568168Y-71621186D01*
X103488505Y-71488670D01*
X103421207Y-71340432D01*
X103366758Y-71177500D01*
X103325644Y-71000904D01*
X103303821Y-70859874D01*
X103297618Y-70790614D01*
X103293987Y-70708447D01*
X103293508Y-70670248D01*
G37*
G36*
X155453455Y-53235517D02*
G01*
X155556752Y-53239660D01*
X155617927Y-53247353D01*
X155643415Y-53259244D01*
X155644248Y-53268679D01*
X155628797Y-53297606D01*
X155589509Y-53367967D01*
X155529812Y-53473770D01*
X155453132Y-53609019D01*
X155362896Y-53767722D01*
X155262532Y-53943882D01*
X155155467Y-54131508D01*
X155045127Y-54324604D01*
X154934941Y-54517176D01*
X154828335Y-54703231D01*
X154728737Y-54876774D01*
X154639573Y-55031812D01*
X154564271Y-55162349D01*
X154506259Y-55262393D01*
X154468962Y-55325948D01*
X154455956Y-55346981D01*
X154441224Y-55325476D01*
X154401977Y-55260937D01*
X154340997Y-55158121D01*
X154261065Y-55021787D01*
X154164963Y-54856692D01*
X154055472Y-54667596D01*
X153935372Y-54459256D01*
X153840667Y-54294381D01*
X153232645Y-53234280D01*
X153595911Y-53234822D01*
X153959177Y-53235364D01*
X154202679Y-53705466D01*
X154446182Y-54175569D01*
X154493469Y-54097070D01*
X154522254Y-54045833D01*
X154570547Y-53956142D01*
X154632760Y-53838527D01*
X154703305Y-53703518D01*
X154743239Y-53626425D01*
X154945721Y-53234280D01*
X155301601Y-53234280D01*
X155453455Y-53235517D01*
G37*
G36*
X149917945Y-53703746D02*
G01*
X150002709Y-53866920D01*
X150066702Y-53986215D01*
X150113511Y-54067107D01*
X150146718Y-54115075D01*
X150169910Y-54135594D01*
X150186669Y-54134142D01*
X150194352Y-54126089D01*
X150217841Y-54086659D01*
X150261139Y-54007209D01*
X150319386Y-53896917D01*
X150387719Y-53764961D01*
X150442856Y-53656922D01*
X150656902Y-53234878D01*
X151023773Y-53234579D01*
X151390643Y-53234280D01*
X151336826Y-53323717D01*
X151311469Y-53367018D01*
X151262101Y-53452375D01*
X151192015Y-53574055D01*
X151104505Y-53726327D01*
X151002863Y-53903458D01*
X150890383Y-54099718D01*
X150770359Y-54309373D01*
X150739933Y-54362557D01*
X150620397Y-54571239D01*
X150509091Y-54764995D01*
X150409036Y-54938610D01*
X150323249Y-55086871D01*
X150254751Y-55204564D01*
X150206559Y-55286474D01*
X150181694Y-55327388D01*
X150179208Y-55330916D01*
X150162308Y-55311859D01*
X150121130Y-55249682D01*
X150058537Y-55149146D01*
X149977389Y-55015012D01*
X149880550Y-54852043D01*
X149770880Y-54664999D01*
X149651242Y-54458641D01*
X149569903Y-54317135D01*
X149445146Y-54099169D01*
X149328921Y-53895718D01*
X149224078Y-53711800D01*
X149133466Y-53552429D01*
X149059933Y-53422622D01*
X149006328Y-53327394D01*
X148975502Y-53271761D01*
X148969072Y-53259339D01*
X148991320Y-53249676D01*
X149059801Y-53241861D01*
X149165721Y-53236528D01*
X149300288Y-53234307D01*
X149317947Y-53234280D01*
X149675995Y-53234280D01*
X149917945Y-53703746D01*
G37*
G36*
X155525056Y-54257728D02*
G01*
X156157518Y-54257728D01*
X156169308Y-54397381D01*
X156215323Y-54528732D01*
X156296848Y-54642363D01*
X156415164Y-54728851D01*
X156434519Y-54738159D01*
X156537633Y-54764131D01*
X156661456Y-54766245D01*
X156782500Y-54746406D01*
X156877282Y-54706522D01*
X156884208Y-54701655D01*
X156999816Y-54584414D01*
X157072717Y-54442503D01*
X157101690Y-54287200D01*
X157085515Y-54129784D01*
X157022968Y-53981533D01*
X156969970Y-53909813D01*
X156851172Y-53813593D01*
X156707511Y-53766097D01*
X156567071Y-53764663D01*
X156426970Y-53804514D01*
X156314681Y-53883167D01*
X156231488Y-53991200D01*
X156178673Y-54119194D01*
X156157518Y-54257728D01*
X155525056Y-54257728D01*
X155522218Y-54211784D01*
X155557515Y-53992028D01*
X155636677Y-53786435D01*
X155754168Y-53600568D01*
X155904450Y-53439992D01*
X156081987Y-53310274D01*
X156281241Y-53216979D01*
X156496674Y-53165671D01*
X156722751Y-53161916D01*
X156798107Y-53171951D01*
X157024666Y-53234309D01*
X157226701Y-53341623D01*
X157412286Y-53498361D01*
X157439660Y-53526897D01*
X157568893Y-53683691D01*
X157655349Y-53838306D01*
X157705221Y-54006758D01*
X157724703Y-54205063D01*
X157725556Y-54266241D01*
X157713274Y-54475395D01*
X157672298Y-54650344D01*
X157596429Y-54807111D01*
X157479469Y-54961723D01*
X157439544Y-55005709D01*
X157247358Y-55175040D01*
X157036605Y-55293271D01*
X156809903Y-55359532D01*
X156569870Y-55372948D01*
X156401445Y-55351653D01*
X156189952Y-55282932D01*
X155995235Y-55167649D01*
X155824550Y-55013449D01*
X155685154Y-54827980D01*
X155584305Y-54618888D01*
X155536325Y-54440135D01*
X155525056Y-54257728D01*
G37*
G36*
X151268350Y-54031309D02*
G01*
X151280365Y-53956361D01*
X151302358Y-53888062D01*
X151337314Y-53810289D01*
X151352243Y-53779714D01*
X151481057Y-53573855D01*
X151640826Y-53408327D01*
X151824773Y-53284310D01*
X152026119Y-53202988D01*
X152238087Y-53165541D01*
X152453898Y-53173152D01*
X152666775Y-53227003D01*
X152869940Y-53328275D01*
X153056616Y-53478150D01*
X153060355Y-53481872D01*
X153177247Y-53627787D01*
X153272814Y-53803766D01*
X153341389Y-53994064D01*
X153377308Y-54182932D01*
X153374904Y-54354624D01*
X153374746Y-54355678D01*
X153361273Y-54445114D01*
X152619530Y-54445114D01*
X151877787Y-54445114D01*
X151895669Y-54507032D01*
X151955716Y-54627050D01*
X152058053Y-54736007D01*
X152101367Y-54768462D01*
X152214817Y-54817314D01*
X152346161Y-54830949D01*
X152477695Y-54811305D01*
X152591714Y-54760319D01*
X152650521Y-54708359D01*
X152690800Y-54689878D01*
X152768792Y-54675879D01*
X152871681Y-54666529D01*
X152986652Y-54661997D01*
X153100887Y-54662452D01*
X153201571Y-54668062D01*
X153275889Y-54678995D01*
X153311023Y-54695419D01*
X153312223Y-54699665D01*
X153295208Y-54757142D01*
X153251278Y-54840645D01*
X153190221Y-54935185D01*
X153121825Y-55025773D01*
X153055876Y-55097421D01*
X153047624Y-55104887D01*
X152867261Y-55229521D01*
X152659022Y-55317116D01*
X152436732Y-55364445D01*
X152214216Y-55368281D01*
X152047277Y-55338414D01*
X151937474Y-55301081D01*
X151828933Y-55254037D01*
X151784900Y-55230696D01*
X151656175Y-55135311D01*
X151526865Y-55005426D01*
X151412968Y-54859019D01*
X151336071Y-54726305D01*
X151302690Y-54649429D01*
X151281150Y-54579583D01*
X151268926Y-54500995D01*
X151263492Y-54397892D01*
X151262319Y-54265662D01*
X151263329Y-54129035D01*
X151268298Y-54032330D01*
X151884359Y-54032330D01*
X152308039Y-54032330D01*
X152731720Y-54032330D01*
X152703186Y-53950475D01*
X152649032Y-53858856D01*
X152561510Y-53772178D01*
X152460789Y-53708131D01*
X152404249Y-53688319D01*
X152268464Y-53683639D01*
X152135409Y-53722572D01*
X152019564Y-53797394D01*
X151935411Y-53900377D01*
X151912893Y-53950475D01*
X151884359Y-54032330D01*
X151268298Y-54032330D01*
X151268350Y-54031309D01*
G37*
X127940000Y-62940000D02*
X127940000Y-63710000D01*
X129310000Y-63710000D02*
X126570000Y-63710000D01*
X126570000Y-63710000D02*
X126570000Y-70250000D01*
X129310000Y-70250000D02*
X129310000Y-63710000D01*
X126570000Y-70250000D02*
X129310000Y-70250000D01*
X127940000Y-71020000D02*
X127940000Y-70250000D01*
D14*
X180930000Y-57130000D02*
X180930000Y-71530000D01*
X174230000Y-57130000D02*
X180930000Y-57130000D01*
X156230000Y-57130000D02*
X174230000Y-57130000D01*
X180930000Y-71530000D02*
X174230000Y-71530000D01*
X174230000Y-71530000D02*
X174230000Y-57130000D01*
X174230000Y-71530000D02*
X156230000Y-71530000D01*
X156230000Y-71530000D02*
X156230000Y-57130000D01*
D15*
X160370000Y-56380000D02*
G75*
G03*
X160370000Y-56380000I-100000J0D01*
G01*
D13*
X103790000Y-52735000D02*
X103790000Y-55825000D01*
X109339999Y-54280462D02*
G75*
G03*
X103790001Y-52735170I-2989999J462D01*
G01*
X103790000Y-55824830D02*
G75*
G03*
X109340000Y-54279538I2560000J1544830D01*
G01*
X108850000Y-54280000D02*
G75*
G03*
X108850000Y-54280000I-2500000J0D01*
G01*
X135560000Y-71020000D02*
X135560000Y-70250000D01*
X134190000Y-70250000D02*
X136930000Y-70250000D01*
X136930000Y-70250000D02*
X136930000Y-63710000D01*
X134190000Y-63710000D02*
X134190000Y-70250000D01*
X136930000Y-63710000D02*
X134190000Y-63710000D01*
X135560000Y-62940000D02*
X135560000Y-63710000D01*
G36*
X120960201Y-71049986D02*
G01*
X120952908Y-71325538D01*
X120930712Y-71574131D01*
X120893141Y-71797380D01*
X120839720Y-71996902D01*
X120769977Y-72174312D01*
X120683438Y-72331223D01*
X120579631Y-72469253D01*
X120528065Y-72524720D01*
X120430254Y-72612002D01*
X120323714Y-72687349D01*
X120217516Y-72744873D01*
X120147946Y-72771472D01*
X120111934Y-72782384D01*
X120111934Y-71788993D01*
X120111934Y-70795602D01*
X120536068Y-70795602D01*
X120960201Y-70795602D01*
X120960201Y-71049986D01*
G37*
G36*
X121318319Y-70852355D02*
G01*
X121414279Y-70877870D01*
X121525092Y-70916220D01*
X121638742Y-70962851D01*
X121743207Y-71013207D01*
X121744449Y-71013864D01*
X121930636Y-71129053D01*
X122096382Y-71266614D01*
X122242109Y-71427208D01*
X122368238Y-71611498D01*
X122475190Y-71820144D01*
X122563388Y-72053808D01*
X122633252Y-72313152D01*
X122661344Y-72452123D01*
X122671658Y-72512021D01*
X122679756Y-72568551D01*
X122685899Y-72626741D01*
X122690352Y-72691617D01*
X122693377Y-72768207D01*
X122695238Y-72861538D01*
X122696197Y-72976638D01*
X122696517Y-73118533D01*
X122696520Y-73124335D01*
X122696126Y-73284959D01*
X122694458Y-73419738D01*
X122691031Y-73534828D01*
X122685366Y-73636384D01*
X122676979Y-73730562D01*
X122665390Y-73823518D01*
X122650116Y-73921407D01*
X122630675Y-74030385D01*
X122621971Y-74076635D01*
X122562422Y-74329517D01*
X122483768Y-74564858D01*
X122387198Y-74780396D01*
X122273904Y-74973871D01*
X122145075Y-75143020D01*
X122001904Y-75285583D01*
X121972600Y-75309944D01*
X121823720Y-75417336D01*
X121668297Y-75503044D01*
X121498341Y-75570856D01*
X121312312Y-75623055D01*
X121253292Y-75632840D01*
X121170198Y-75641077D01*
X121069639Y-75647633D01*
X120958223Y-75652376D01*
X120842559Y-75655174D01*
X120729254Y-75655894D01*
X120624918Y-75654402D01*
X120536158Y-75650568D01*
X120469582Y-75644257D01*
X120447839Y-75640399D01*
X120349880Y-75609901D01*
X120274568Y-75565333D01*
X120216623Y-75501671D01*
X120170765Y-75413893D01*
X120149938Y-75357038D01*
X120144186Y-75337712D01*
X120139213Y-75315455D01*
X120134948Y-75287845D01*
X120131321Y-75252458D01*
X120128260Y-75206869D01*
X120125695Y-75148655D01*
X120123555Y-75075391D01*
X120121769Y-74984654D01*
X120120266Y-74874020D01*
X120118976Y-74741066D01*
X120117826Y-74583366D01*
X120116748Y-74398497D01*
X120115673Y-74184669D01*
X120114698Y-73971080D01*
X120114000Y-73787290D01*
X120113620Y-73631090D01*
X120113600Y-73500270D01*
X120113983Y-73392619D01*
X120114811Y-73305927D01*
X120116125Y-73237986D01*
X120117968Y-73186585D01*
X120120382Y-73149513D01*
X120123408Y-73124562D01*
X120127090Y-73109522D01*
X120131469Y-73102181D01*
X120136325Y-73100328D01*
X120162665Y-73094428D01*
X120209330Y-73078785D01*
X120267319Y-73056480D01*
X120281747Y-73050550D01*
X120469056Y-72955557D01*
X120638701Y-72834278D01*
X120789899Y-72687620D01*
X120921866Y-72516495D01*
X121033817Y-72321813D01*
X121124969Y-72104483D01*
X121143220Y-72050429D01*
X121176407Y-71941522D01*
X121202543Y-71839563D01*
X121222558Y-71737941D01*
X121237380Y-71630044D01*
X121247940Y-71509262D01*
X121255165Y-71368984D01*
X121259532Y-71222905D01*
X121268308Y-70841954D01*
X121318319Y-70852355D01*
G37*
G36*
X120521458Y-66434094D02*
G01*
X120663152Y-66436628D01*
X120790098Y-66440968D01*
X120896546Y-66447149D01*
X120976207Y-66455135D01*
X121356603Y-66517094D01*
X121714312Y-66595845D01*
X122054851Y-66693049D01*
X122383743Y-66810370D01*
X122706507Y-66949468D01*
X122851771Y-67019886D01*
X123210655Y-67217199D01*
X123555130Y-67441522D01*
X123883193Y-67690872D01*
X124192845Y-67963266D01*
X124482083Y-68256721D01*
X124748907Y-68569254D01*
X124991314Y-68898882D01*
X125207303Y-69243622D01*
X125335551Y-69480707D01*
X125507905Y-69849010D01*
X125651055Y-70218809D01*
X125766718Y-70595604D01*
X125856615Y-70984892D01*
X125914338Y-71331770D01*
X125925165Y-71430146D01*
X125934324Y-71553553D01*
X125941671Y-71695048D01*
X125947065Y-71847687D01*
X125950360Y-72004529D01*
X125951415Y-72158630D01*
X125950086Y-72303047D01*
X125946230Y-72430838D01*
X125939704Y-72535059D01*
X125939248Y-72540151D01*
X125884490Y-72970239D01*
X125799867Y-73389091D01*
X125685533Y-73796307D01*
X125541642Y-74191486D01*
X125368346Y-74574229D01*
X125165800Y-74944136D01*
X124934155Y-75300808D01*
X124820241Y-75457180D01*
X124551601Y-75787418D01*
X124262172Y-76093601D01*
X123952885Y-76375185D01*
X123624670Y-76631629D01*
X123278457Y-76862390D01*
X122915179Y-77066926D01*
X122535765Y-77244695D01*
X122141146Y-77395154D01*
X121732252Y-77517761D01*
X121310016Y-77611974D01*
X121048229Y-77654994D01*
X120957747Y-77664940D01*
X120841505Y-77673177D01*
X120705708Y-77679642D01*
X120556563Y-77684268D01*
X120400278Y-77686992D01*
X120243059Y-77687749D01*
X120091114Y-77686474D01*
X119950648Y-77683103D01*
X119827868Y-77677571D01*
X119728983Y-77669813D01*
X119719811Y-77668819D01*
X119294476Y-77605371D01*
X118879481Y-77511976D01*
X118475984Y-77389300D01*
X118085143Y-77238009D01*
X117708115Y-77058768D01*
X117346060Y-76852244D01*
X117000133Y-76619103D01*
X116671494Y-76360010D01*
X116361300Y-76075633D01*
X116070709Y-75766635D01*
X115800879Y-75433685D01*
X115776074Y-75400438D01*
X115543698Y-75061453D01*
X115338892Y-74708916D01*
X115161237Y-74341760D01*
X115010310Y-73958918D01*
X114885690Y-73559324D01*
X114786956Y-73141913D01*
X114715135Y-72716207D01*
X114708325Y-72646869D01*
X114702825Y-72551156D01*
X114698634Y-72434678D01*
X114695751Y-72303043D01*
X114694177Y-72161859D01*
X114693912Y-72016736D01*
X114694956Y-71873281D01*
X114697309Y-71737104D01*
X114700970Y-71613814D01*
X114705941Y-71509019D01*
X114712220Y-71428328D01*
X114715135Y-71403793D01*
X114789923Y-70964065D01*
X114891002Y-70542424D01*
X115018642Y-70138315D01*
X115173113Y-69751186D01*
X115354683Y-69380481D01*
X115563623Y-69025646D01*
X115800201Y-68686127D01*
X115962584Y-68486741D01*
X117615148Y-68486741D01*
X117715179Y-68497829D01*
X117833340Y-68514256D01*
X117923796Y-68535121D01*
X117990735Y-68562161D01*
X118038350Y-68597112D01*
X118070830Y-68641712D01*
X118073135Y-68646220D01*
X118078242Y-68657675D01*
X118082765Y-68671559D01*
X118086753Y-68689858D01*
X118090258Y-68714558D01*
X118093329Y-68747648D01*
X118096019Y-68791113D01*
X118098377Y-68846940D01*
X118100454Y-68917117D01*
X118102301Y-69003630D01*
X118103968Y-69108465D01*
X118105506Y-69233611D01*
X118106966Y-69381053D01*
X118108398Y-69552779D01*
X118109854Y-69750775D01*
X118111383Y-69977028D01*
X118112845Y-70203415D01*
X118114485Y-70456862D01*
X118116010Y-70680446D01*
X118117474Y-70876315D01*
X118118934Y-71046615D01*
X118120445Y-71193494D01*
X118122061Y-71319099D01*
X118123839Y-71425576D01*
X118125834Y-71515074D01*
X118128101Y-71589738D01*
X118130695Y-71651716D01*
X118133672Y-71703156D01*
X118137086Y-71746203D01*
X118140994Y-71783006D01*
X118145451Y-71815711D01*
X118150512Y-71846465D01*
X118155951Y-71875942D01*
X118210763Y-72110435D01*
X118281002Y-72317714D01*
X118367513Y-72499061D01*
X118471137Y-72655758D01*
X118592716Y-72789084D01*
X118733095Y-72900320D01*
X118887549Y-72988100D01*
X119003261Y-73039743D01*
X119110081Y-73078139D01*
X119221459Y-73107434D01*
X119350846Y-73131775D01*
X119356651Y-73132715D01*
X119473642Y-73151557D01*
X119468575Y-74298311D01*
X119467563Y-74518418D01*
X119466566Y-74708824D01*
X119465519Y-74871839D01*
X119464354Y-75009771D01*
X119463008Y-75124930D01*
X119461414Y-75219625D01*
X119459505Y-75296166D01*
X119457218Y-75356861D01*
X119454485Y-75404020D01*
X119451241Y-75439952D01*
X119447421Y-75466967D01*
X119442958Y-75487372D01*
X119437787Y-75503479D01*
X119433996Y-75512780D01*
X119403936Y-75563911D01*
X119360770Y-75604112D01*
X119300105Y-75635474D01*
X119217548Y-75660087D01*
X119108708Y-75680043D01*
X119071607Y-75685256D01*
X118999242Y-75694927D01*
X118952736Y-75703753D01*
X118926400Y-75716327D01*
X118914546Y-75737238D01*
X118911488Y-75771078D01*
X118911556Y-75814454D01*
X118911556Y-75917215D01*
X119979893Y-75917083D01*
X120186814Y-75916803D01*
X120381710Y-75916039D01*
X120562037Y-75914824D01*
X120725249Y-75913195D01*
X120868801Y-75911185D01*
X120990147Y-75908830D01*
X121086742Y-75906164D01*
X121156041Y-75903222D01*
X121191626Y-75900525D01*
X121474866Y-75852916D01*
X121547570Y-75832388D01*
X122400655Y-75832388D01*
X122404989Y-75850044D01*
X122419861Y-75840391D01*
X122443771Y-75823079D01*
X122457843Y-75831028D01*
X122463265Y-75866397D01*
X122462096Y-75917244D01*
X122459824Y-75970392D01*
X122462472Y-75999112D01*
X122472744Y-76010911D01*
X122493341Y-76013294D01*
X122496685Y-76013303D01*
X122518725Y-76011554D01*
X122530109Y-76001304D01*
X122533542Y-75975046D01*
X122531725Y-75925274D01*
X122531275Y-75917244D01*
X122530501Y-75857833D01*
X122537407Y-75827608D01*
X122553179Y-75824410D01*
X122573510Y-75840391D01*
X122589369Y-75851526D01*
X122592716Y-75840391D01*
X122604080Y-75822390D01*
X122610142Y-75821184D01*
X122620080Y-75836485D01*
X122623333Y-75880857D01*
X122622146Y-75917244D01*
X122620536Y-75971883D01*
X122624437Y-76001427D01*
X122635186Y-76012517D01*
X122641518Y-76013274D01*
X122657810Y-76005163D01*
X122662342Y-75976313D01*
X122661007Y-75953226D01*
X122655700Y-75893207D01*
X122688886Y-75953764D01*
X122714617Y-75993600D01*
X122734686Y-76002918D01*
X122753849Y-75981468D01*
X122768629Y-75949568D01*
X122788649Y-75911518D01*
X122802221Y-75903579D01*
X122805939Y-75924941D01*
X122800781Y-75957227D01*
X122794262Y-75994366D01*
X122801023Y-76009925D01*
X122826007Y-76013229D01*
X122830476Y-76013245D01*
X122853218Y-76011682D01*
X122865883Y-76002163D01*
X122871419Y-75977445D01*
X122872773Y-75930286D01*
X122872804Y-75909212D01*
X122871590Y-75852357D01*
X122866718Y-75820650D01*
X122856339Y-75807278D01*
X122844587Y-75805179D01*
X122818605Y-75820016D01*
X122789527Y-75861459D01*
X122781121Y-75877732D01*
X122745872Y-75950285D01*
X122709000Y-75877732D01*
X122672127Y-75805179D01*
X122536391Y-75805179D01*
X122469634Y-75805989D01*
X122428830Y-75809222D01*
X122407946Y-75816090D01*
X122400949Y-75827802D01*
X122400655Y-75832388D01*
X121547570Y-75832388D01*
X121743590Y-75777042D01*
X121996915Y-75673600D01*
X122233958Y-75543285D01*
X122453838Y-75386796D01*
X122655671Y-75204827D01*
X122838575Y-74998077D01*
X123001668Y-74767241D01*
X123144066Y-74513016D01*
X123249109Y-74276698D01*
X123289397Y-74162792D01*
X123329691Y-74026840D01*
X123367547Y-73878710D01*
X123400522Y-73728272D01*
X123426173Y-73585396D01*
X123434390Y-73528383D01*
X123447905Y-73387581D01*
X123455209Y-73225345D01*
X123456533Y-73050334D01*
X123452108Y-72871203D01*
X123442166Y-72696610D01*
X123426939Y-72535211D01*
X123406659Y-72395665D01*
X123403623Y-72379365D01*
X123337681Y-72101610D01*
X123250974Y-71847724D01*
X123143110Y-71616886D01*
X123013693Y-71408274D01*
X122862329Y-71221065D01*
X122834002Y-71190909D01*
X122655942Y-71028209D01*
X122456186Y-70887322D01*
X122237591Y-70769520D01*
X122003014Y-70676078D01*
X121755313Y-70608269D01*
X121497345Y-70567368D01*
X121420616Y-70560692D01*
X121280302Y-70550733D01*
X121280302Y-69802051D01*
X121280675Y-69631725D01*
X121281749Y-69471737D01*
X121283461Y-69325446D01*
X121285745Y-69196213D01*
X121288536Y-69087399D01*
X121291772Y-69002362D01*
X121295385Y-68944463D01*
X121297116Y-68928171D01*
X121321877Y-68803785D01*
X121361251Y-68704982D01*
X121418619Y-68628209D01*
X121497363Y-68569911D01*
X121600862Y-68526536D01*
X121704436Y-68500051D01*
X121800466Y-68480196D01*
X121805266Y-68389506D01*
X121810066Y-68298815D01*
X121121051Y-68298815D01*
X120432035Y-68298815D01*
X120432035Y-68393001D01*
X120432035Y-68487187D01*
X120516964Y-68497799D01*
X120620646Y-68521455D01*
X120718775Y-68563469D01*
X120803806Y-68619371D01*
X120868198Y-68684688D01*
X120889994Y-68718900D01*
X120905498Y-68755876D01*
X120918709Y-68804431D01*
X120929778Y-68866917D01*
X120938855Y-68945688D01*
X120946090Y-69043098D01*
X120951633Y-69161500D01*
X120955634Y-69303247D01*
X120958244Y-69470692D01*
X120959611Y-69666190D01*
X120959908Y-69815293D01*
X120960201Y-70539521D01*
X119935879Y-70539521D01*
X118911556Y-70539521D01*
X118911556Y-70642828D01*
X118911556Y-70746136D01*
X118971575Y-70755996D01*
X119097113Y-70777295D01*
X119195041Y-70796049D01*
X119269484Y-70813902D01*
X119324567Y-70832496D01*
X119364415Y-70853474D01*
X119393154Y-70878478D01*
X119414909Y-70909152D01*
X119429879Y-70938494D01*
X119437153Y-70955061D01*
X119443324Y-70972561D01*
X119448501Y-70993678D01*
X119452792Y-71021094D01*
X119456306Y-71057494D01*
X119459150Y-71105559D01*
X119461434Y-71167974D01*
X119463265Y-71247422D01*
X119464753Y-71346584D01*
X119466005Y-71468146D01*
X119467131Y-71614789D01*
X119468237Y-71789198D01*
X119468916Y-71904553D01*
X119474102Y-72797436D01*
X119428903Y-72786857D01*
X119316590Y-72746980D01*
X119201998Y-72681279D01*
X119092758Y-72594368D01*
X119062951Y-72565635D01*
X118967755Y-72455929D01*
X118890632Y-72334670D01*
X118827214Y-72194258D01*
X118794026Y-72097989D01*
X118773559Y-72029181D01*
X118755394Y-71959556D01*
X118739411Y-71886922D01*
X118725490Y-71809086D01*
X118713511Y-71723856D01*
X118703352Y-71629040D01*
X118694896Y-71522444D01*
X118688020Y-71401877D01*
X118682604Y-71265145D01*
X118678529Y-71110058D01*
X118675675Y-70934421D01*
X118673920Y-70736043D01*
X118673145Y-70512731D01*
X118673229Y-70262292D01*
X118674053Y-69982535D01*
X118674328Y-69915324D01*
X118675336Y-69688763D01*
X118676333Y-69491997D01*
X118677376Y-69322810D01*
X118678526Y-69178986D01*
X118679839Y-69058310D01*
X118681375Y-68958567D01*
X118683193Y-68877542D01*
X118685350Y-68813018D01*
X118687905Y-68762780D01*
X118690918Y-68724613D01*
X118694445Y-68696302D01*
X118698547Y-68675630D01*
X118703281Y-68660383D01*
X118707751Y-68650223D01*
X118734357Y-68608471D01*
X118770560Y-68576336D01*
X118821873Y-68551161D01*
X118893807Y-68530289D01*
X118991874Y-68511064D01*
X118998972Y-68509861D01*
X119067898Y-68497275D01*
X119123260Y-68485298D01*
X119158619Y-68475445D01*
X119168176Y-68470073D01*
X119167864Y-68448746D01*
X119167670Y-68406865D01*
X119167637Y-68378840D01*
X119167637Y-68298815D01*
X118391392Y-68298815D01*
X117615148Y-68298815D01*
X117615148Y-68392778D01*
X117615148Y-68486741D01*
X115962584Y-68486741D01*
X116064688Y-68361370D01*
X116123323Y-68298815D01*
X116334025Y-68074025D01*
X116648238Y-67781613D01*
X116978154Y-67517094D01*
X117323758Y-67280474D01*
X117685031Y-67071764D01*
X118061959Y-66890970D01*
X118454524Y-66738101D01*
X118862711Y-66613164D01*
X119286501Y-66516169D01*
X119599773Y-66463854D01*
X119683667Y-66454768D01*
X119793071Y-66447234D01*
X119922235Y-66441286D01*
X120065406Y-66436962D01*
X120216834Y-66434298D01*
X120370769Y-66433330D01*
X120521458Y-66434094D01*
G37*
X155880000Y-80720000D02*
X155880000Y-81490000D01*
X157250000Y-81490000D02*
X154510000Y-81490000D01*
X154510000Y-81490000D02*
X154510000Y-88030000D01*
X157250000Y-88030000D02*
X157250000Y-81490000D01*
X154510000Y-88030000D02*
X157250000Y-88030000D01*
X155880000Y-88800000D02*
X155880000Y-88030000D01*
X125729759Y-77841000D02*
X126359759Y-77841000D01*
X126044759Y-77526000D02*
X126044759Y-78156000D01*
X129230000Y-76450000D02*
X129230000Y-82910000D01*
X129270000Y-76450000D02*
X129270000Y-82910000D01*
X129310000Y-76450000D02*
X129310000Y-82910000D01*
X129350000Y-76452000D02*
X129350000Y-82908000D01*
X129390000Y-76453000D02*
X129390000Y-82907000D01*
X129430000Y-76456000D02*
X129430000Y-82904000D01*
X129470000Y-76458000D02*
X129470000Y-78640000D01*
X129470000Y-80720000D02*
X129470000Y-82902000D01*
X129510000Y-76462000D02*
X129510000Y-78640000D01*
X129510000Y-80720000D02*
X129510000Y-82898000D01*
X129550000Y-76465000D02*
X129550000Y-78640000D01*
X129550000Y-80720000D02*
X129550000Y-82895000D01*
X129590000Y-76469000D02*
X129590000Y-78640000D01*
X129590000Y-80720000D02*
X129590000Y-82891000D01*
X129630000Y-76474000D02*
X129630000Y-78640000D01*
X129630000Y-80720000D02*
X129630000Y-82886000D01*
X129670000Y-76479000D02*
X129670000Y-78640000D01*
X129670000Y-80720000D02*
X129670000Y-82881000D01*
X129710000Y-76485000D02*
X129710000Y-78640000D01*
X129710000Y-80720000D02*
X129710000Y-82875000D01*
X129750000Y-76491000D02*
X129750000Y-78640000D01*
X129750000Y-80720000D02*
X129750000Y-82869000D01*
X129790000Y-76498000D02*
X129790000Y-78640000D01*
X129790000Y-80720000D02*
X129790000Y-82862000D01*
X129830000Y-76505000D02*
X129830000Y-78640000D01*
X129830000Y-80720000D02*
X129830000Y-82855000D01*
X129870000Y-76513000D02*
X129870000Y-78640000D01*
X129870000Y-80720000D02*
X129870000Y-82847000D01*
X129910000Y-76521000D02*
X129910000Y-78640000D01*
X129910000Y-80720000D02*
X129910000Y-82839000D01*
X129951000Y-76530000D02*
X129951000Y-78640000D01*
X129951000Y-80720000D02*
X129951000Y-82830000D01*
X129991000Y-76539000D02*
X129991000Y-78640000D01*
X129991000Y-80720000D02*
X129991000Y-82821000D01*
X130031000Y-76549000D02*
X130031000Y-78640000D01*
X130031000Y-80720000D02*
X130031000Y-82811000D01*
X130071000Y-76559000D02*
X130071000Y-78640000D01*
X130071000Y-80720000D02*
X130071000Y-82801000D01*
X130111000Y-76570000D02*
X130111000Y-78640000D01*
X130111000Y-80720000D02*
X130111000Y-82790000D01*
X130151000Y-76582000D02*
X130151000Y-78640000D01*
X130151000Y-80720000D02*
X130151000Y-82778000D01*
X130191000Y-76594000D02*
X130191000Y-78640000D01*
X130191000Y-80720000D02*
X130191000Y-82766000D01*
X130231000Y-76606000D02*
X130231000Y-78640000D01*
X130231000Y-80720000D02*
X130231000Y-82754000D01*
X130271000Y-76619000D02*
X130271000Y-78640000D01*
X130271000Y-80720000D02*
X130271000Y-82741000D01*
X130311000Y-76633000D02*
X130311000Y-78640000D01*
X130311000Y-80720000D02*
X130311000Y-82727000D01*
X130351000Y-76647000D02*
X130351000Y-78640000D01*
X130351000Y-80720000D02*
X130351000Y-82713000D01*
X130391000Y-76662000D02*
X130391000Y-78640000D01*
X130391000Y-80720000D02*
X130391000Y-82698000D01*
X130431000Y-76678000D02*
X130431000Y-78640000D01*
X130431000Y-80720000D02*
X130431000Y-82682000D01*
X130471000Y-76694000D02*
X130471000Y-78640000D01*
X130471000Y-80720000D02*
X130471000Y-82666000D01*
X130511000Y-76710000D02*
X130511000Y-78640000D01*
X130511000Y-80720000D02*
X130511000Y-82650000D01*
X130551000Y-76728000D02*
X130551000Y-78640000D01*
X130551000Y-80720000D02*
X130551000Y-82632000D01*
X130591000Y-76746000D02*
X130591000Y-78640000D01*
X130591000Y-80720000D02*
X130591000Y-82614000D01*
X130631000Y-76764000D02*
X130631000Y-78640000D01*
X130631000Y-80720000D02*
X130631000Y-82596000D01*
X130671000Y-76784000D02*
X130671000Y-78640000D01*
X130671000Y-80720000D02*
X130671000Y-82576000D01*
X130711000Y-76804000D02*
X130711000Y-78640000D01*
X130711000Y-80720000D02*
X130711000Y-82556000D01*
X130751000Y-76824000D02*
X130751000Y-78640000D01*
X130751000Y-80720000D02*
X130751000Y-82536000D01*
X130791000Y-76846000D02*
X130791000Y-78640000D01*
X130791000Y-80720000D02*
X130791000Y-82514000D01*
X130831000Y-76868000D02*
X130831000Y-78640000D01*
X130831000Y-80720000D02*
X130831000Y-82492000D01*
X130871000Y-76890000D02*
X130871000Y-78640000D01*
X130871000Y-80720000D02*
X130871000Y-82470000D01*
X130911000Y-76914000D02*
X130911000Y-78640000D01*
X130911000Y-80720000D02*
X130911000Y-82446000D01*
X130951000Y-76938000D02*
X130951000Y-78640000D01*
X130951000Y-80720000D02*
X130951000Y-82422000D01*
X130991000Y-76964000D02*
X130991000Y-78640000D01*
X130991000Y-80720000D02*
X130991000Y-82396000D01*
X131031000Y-76990000D02*
X131031000Y-78640000D01*
X131031000Y-80720000D02*
X131031000Y-82370000D01*
X131071000Y-77016000D02*
X131071000Y-78640000D01*
X131071000Y-80720000D02*
X131071000Y-82344000D01*
X131111000Y-77044000D02*
X131111000Y-78640000D01*
X131111000Y-80720000D02*
X131111000Y-82316000D01*
X131151000Y-77073000D02*
X131151000Y-78640000D01*
X131151000Y-80720000D02*
X131151000Y-82287000D01*
X131191000Y-77102000D02*
X131191000Y-78640000D01*
X131191000Y-80720000D02*
X131191000Y-82258000D01*
X131231000Y-77132000D02*
X131231000Y-78640000D01*
X131231000Y-80720000D02*
X131231000Y-82228000D01*
X131271000Y-77164000D02*
X131271000Y-78640000D01*
X131271000Y-80720000D02*
X131271000Y-82196000D01*
X131311000Y-77196000D02*
X131311000Y-78640000D01*
X131311000Y-80720000D02*
X131311000Y-82164000D01*
X131351000Y-77230000D02*
X131351000Y-78640000D01*
X131351000Y-80720000D02*
X131351000Y-82130000D01*
X131391000Y-77264000D02*
X131391000Y-78640000D01*
X131391000Y-80720000D02*
X131391000Y-82096000D01*
X131431000Y-77300000D02*
X131431000Y-78640000D01*
X131431000Y-80720000D02*
X131431000Y-82060000D01*
X131471000Y-77337000D02*
X131471000Y-78640000D01*
X131471000Y-80720000D02*
X131471000Y-82023000D01*
X131511000Y-77375000D02*
X131511000Y-78640000D01*
X131511000Y-80720000D02*
X131511000Y-81985000D01*
X131551000Y-77415000D02*
X131551000Y-81945000D01*
X131591000Y-77456000D02*
X131591000Y-81904000D01*
X131631000Y-77498000D02*
X131631000Y-81862000D01*
X131671000Y-77543000D02*
X131671000Y-81817000D01*
X131711000Y-77588000D02*
X131711000Y-81772000D01*
X131751000Y-77636000D02*
X131751000Y-81724000D01*
X131791000Y-77685000D02*
X131791000Y-81675000D01*
X131831000Y-77736000D02*
X131831000Y-81624000D01*
X131871000Y-77790000D02*
X131871000Y-81570000D01*
X131911000Y-77846000D02*
X131911000Y-81514000D01*
X131951000Y-77904000D02*
X131951000Y-81456000D01*
X131991000Y-77966000D02*
X131991000Y-81394000D01*
X132031000Y-78030000D02*
X132031000Y-81330000D01*
X132071000Y-78099000D02*
X132071000Y-81261000D01*
X132111000Y-78171000D02*
X132111000Y-81189000D01*
X132151000Y-78248000D02*
X132151000Y-81112000D01*
X132191000Y-78330000D02*
X132191000Y-81030000D01*
X132231000Y-78418000D02*
X132231000Y-80942000D01*
X132271000Y-78515000D02*
X132271000Y-80845000D01*
X132311000Y-78621000D02*
X132311000Y-80739000D01*
X132351000Y-78740000D02*
X132351000Y-80620000D01*
X132391000Y-78878000D02*
X132391000Y-80482000D01*
X132431000Y-79047000D02*
X132431000Y-80313000D01*
X132471000Y-79278000D02*
X132471000Y-80082000D01*
X132500000Y-79680000D02*
G75*
G03*
X132500000Y-79680000I-3270000J0D01*
G01*
X103580000Y-84760000D02*
X104350000Y-84760000D01*
X104350000Y-83390000D02*
X104350000Y-86130000D01*
X104350000Y-86130000D02*
X110890000Y-86130000D01*
X110890000Y-83390000D02*
X104350000Y-83390000D01*
X110890000Y-86130000D02*
X110890000Y-83390000D01*
X111660000Y-84760000D02*
X110890000Y-84760000D01*
X148260000Y-78180000D02*
X148260000Y-78950000D01*
X149630000Y-78950000D02*
X146890000Y-78950000D01*
X146890000Y-78950000D02*
X146890000Y-85490000D01*
X149630000Y-85490000D02*
X149630000Y-78950000D01*
X146890000Y-85490000D02*
X149630000Y-85490000D01*
X148260000Y-86260000D02*
X148260000Y-85490000D01*
%LPC*%
D16*
X127939999Y-97459999D03*
D17*
X130479999Y-97459999D03*
X133019999Y-97459999D03*
X135559999Y-97459999D03*
X138099999Y-97459999D03*
X140639999Y-97459999D03*
X143179999Y-97459999D03*
X145719999Y-97459999D03*
D16*
X150799999Y-97459999D03*
D17*
X153339999Y-97459999D03*
X155879999Y-97459999D03*
X158419999Y-97459999D03*
X160959999Y-97459999D03*
X163499999Y-97459999D03*
D16*
X118795999Y-49199999D03*
D17*
X121335999Y-49199999D03*
X123875999Y-49199999D03*
X126415999Y-49199999D03*
X128955999Y-49199999D03*
X131495999Y-49199999D03*
X134035999Y-49199999D03*
X136575999Y-49199999D03*
X139115999Y-49199999D03*
X141655999Y-49199999D03*
D16*
X145719999Y-49199999D03*
D17*
X148259999Y-49199999D03*
X150799999Y-49199999D03*
X153339999Y-49199999D03*
X155879999Y-49199999D03*
X158419999Y-49199999D03*
X160959999Y-49199999D03*
X163499999Y-49199999D03*
D18*
X105079999Y-92379999D03*
D19*
X107620000Y-92380000D03*
D20*
X143180000Y-72060000D03*
D21*
X143179999Y-61899999D03*
D22*
X138139999Y-89839999D03*
D20*
X140640000Y-89840000D03*
D23*
X163499999Y-85679999D03*
D24*
X163500000Y-83680000D03*
X163500000Y-81680000D03*
X163500000Y-79680000D03*
D20*
X102540000Y-61900000D03*
D21*
X112699999Y-61899999D03*
D25*
X115240000Y-49200000D03*
D20*
X127940000Y-61900000D03*
D21*
X127939999Y-72059999D03*
D26*
X160269999Y-60629999D03*
D27*
X160270000Y-63170000D03*
X160270000Y-65710000D03*
X160270000Y-68250000D03*
X157730000Y-60630000D03*
X157730000Y-63170000D03*
X157730000Y-65710000D03*
X157730000Y-68250000D03*
D18*
X105079999Y-54279999D03*
D19*
X107620000Y-54280000D03*
D20*
X135560000Y-72060000D03*
D21*
X135559999Y-61899999D03*
D20*
X155880000Y-79680000D03*
D21*
X155879999Y-89839999D03*
D22*
X127979999Y-79679999D03*
D20*
X130480000Y-79680000D03*
X102540000Y-84760000D03*
D21*
X112699999Y-84759999D03*
D25*
X113970000Y-97460000D03*
D20*
X148260000Y-77140000D03*
D21*
X148259999Y-87299999D03*
D25*
X166040000Y-64440000D03*
X166040000Y-92380000D03*
M02*
