%TF.GenerationSoftware,KiCad,Pcbnew,(7.0.0)*%
%TF.CreationDate,2023-03-24T12:39:27-04:00*%
%TF.ProjectId,ELEG298_S23_Demo_shield,454c4547-3239-4385-9f53-32335f44656d,rev?*%
%TF.SameCoordinates,Original*%
%TF.FileFunction,Copper,L1,Top*%
%TF.FilePolarity,Positive*%
%FSLAX46Y46*%
G04 Gerber Fmt 4.6, Leading zero omitted, Abs format (unit mm)*
G04 Created by KiCad (PCBNEW (7.0.0)) date 2023-03-24 12:39:27*
%MOMM*%
%LPD*%
G01*
G04 APERTURE LIST*
%TA.AperFunction,ComponentPad*%
%ADD10R,1.700000X1.700000*%
%TD*%
%TA.AperFunction,ComponentPad*%
%ADD11O,1.700000X1.700000*%
%TD*%
%TA.AperFunction,ComponentPad*%
%ADD12R,1.800000X1.800000*%
%TD*%
%TA.AperFunction,ComponentPad*%
%ADD13C,1.800000*%
%TD*%
%TA.AperFunction,ComponentPad*%
%ADD14C,1.600000*%
%TD*%
%TA.AperFunction,ComponentPad*%
%ADD15O,1.600000X1.600000*%
%TD*%
%TA.AperFunction,ComponentPad*%
%ADD16R,1.600000X1.600000*%
%TD*%
%TA.AperFunction,ComponentPad*%
%ADD17R,1.308000X1.308000*%
%TD*%
%TA.AperFunction,ComponentPad*%
%ADD18C,1.308000*%
%TD*%
%TA.AperFunction,ComponentPad*%
%ADD19R,1.500000X1.500000*%
%TD*%
%TA.AperFunction,ComponentPad*%
%ADD20C,1.500000*%
%TD*%
%TA.AperFunction,Conductor*%
%ADD21C,0.400000*%
%TD*%
%TA.AperFunction,Conductor*%
%ADD22C,0.250000*%
%TD*%
G04 APERTURE END LIST*
D10*
X127939999Y-97459999D03*
D11*
X130479999Y-97459999D03*
X133019999Y-97459999D03*
X135559999Y-97459999D03*
X138099999Y-97459999D03*
X140639999Y-97459999D03*
X143179999Y-97459999D03*
X145719999Y-97459999D03*
D10*
X150799999Y-97459999D03*
D11*
X153339999Y-97459999D03*
X155879999Y-97459999D03*
X158419999Y-97459999D03*
X160959999Y-97459999D03*
X163499999Y-97459999D03*
D10*
X118795999Y-49199999D03*
D11*
X121335999Y-49199999D03*
X123875999Y-49199999D03*
X126415999Y-49199999D03*
X128955999Y-49199999D03*
X131495999Y-49199999D03*
X134035999Y-49199999D03*
X136575999Y-49199999D03*
X139115999Y-49199999D03*
X141655999Y-49199999D03*
D10*
X145719999Y-49199999D03*
D11*
X148259999Y-49199999D03*
X150799999Y-49199999D03*
X153339999Y-49199999D03*
X155879999Y-49199999D03*
X158419999Y-49199999D03*
X160959999Y-49199999D03*
X163499999Y-49199999D03*
D12*
X105079999Y-92379999D03*
D13*
X107620000Y-92380000D03*
D14*
X143180000Y-72060000D03*
D15*
X143179999Y-61899999D03*
D16*
X138139999Y-89839999D03*
D14*
X140640000Y-89840000D03*
D17*
X163499999Y-85679999D03*
D18*
X163500000Y-83680000D03*
X163500000Y-81680000D03*
X163500000Y-79680000D03*
D14*
X102540000Y-61900000D03*
D15*
X112699999Y-61899999D03*
D14*
X127940000Y-61900000D03*
D15*
X127939999Y-72059999D03*
D19*
X160269999Y-60629999D03*
D20*
X160270000Y-63170000D03*
X160270000Y-65710000D03*
X160270000Y-68250000D03*
X157730000Y-60630000D03*
X157730000Y-63170000D03*
X157730000Y-65710000D03*
X157730000Y-68250000D03*
D12*
X105079999Y-54279999D03*
D13*
X107620000Y-54280000D03*
D14*
X135560000Y-72060000D03*
D15*
X135559999Y-61899999D03*
D14*
X155880000Y-79680000D03*
D15*
X155879999Y-89839999D03*
D16*
X127979999Y-79679999D03*
D14*
X130480000Y-79680000D03*
X102540000Y-84760000D03*
D15*
X112699999Y-84759999D03*
D14*
X148260000Y-77140000D03*
D15*
X148259999Y-87299999D03*
D21*
X143180000Y-74600000D02*
X156420000Y-74600000D01*
X138140000Y-79640000D02*
X143180000Y-74600000D01*
D22*
X138140000Y-97420000D02*
X138100000Y-97460000D01*
D21*
X138140000Y-89840000D02*
X138140000Y-79640000D01*
X138140000Y-89840000D02*
X138140000Y-97420000D01*
X156420000Y-74600000D02*
X163500000Y-81680000D01*
D22*
X153340000Y-99675000D02*
X161285000Y-99675000D01*
X148260000Y-87300000D02*
X151975000Y-91015000D01*
X151975000Y-98310000D02*
X153340000Y-99675000D01*
X151975000Y-91015000D02*
X151975000Y-98310000D01*
X161285000Y-99675000D02*
X163500000Y-97460000D01*
X112700000Y-84760000D02*
X112700000Y-66980000D01*
X120320000Y-59360000D02*
X125400000Y-59360000D01*
X112700000Y-66980000D02*
X120320000Y-59360000D01*
X125400000Y-59360000D02*
X128956000Y-55804000D01*
X112700000Y-84123604D02*
X113018198Y-84441802D01*
X128956000Y-55804000D02*
X128956000Y-49200000D01*
X112139000Y-47221000D02*
X129517000Y-47221000D01*
X129517000Y-47221000D02*
X131496000Y-49200000D01*
X110160000Y-49200000D02*
X112139000Y-47221000D01*
X110160000Y-51740000D02*
X110160000Y-49200000D01*
X112700000Y-54280000D02*
X110160000Y-51740000D01*
X112700000Y-61900000D02*
X112700000Y-54280000D01*
X150800000Y-56820000D02*
X154610000Y-60630000D01*
X136576000Y-49200000D02*
X144196000Y-56820000D01*
X154610000Y-60630000D02*
X157730000Y-60630000D01*
X144196000Y-56820000D02*
X150800000Y-56820000D01*
X127980000Y-79640000D02*
X127980000Y-79680000D01*
D21*
X143180000Y-72060000D02*
X153920000Y-72060000D01*
X138100000Y-77140000D02*
X143180000Y-72060000D01*
X153920000Y-72060000D02*
X157730000Y-68250000D01*
X127980000Y-79680000D02*
X127980000Y-89880000D01*
X127980000Y-89880000D02*
X135560000Y-97460000D01*
X127980000Y-79680000D02*
X130520000Y-77140000D01*
X130520000Y-77140000D02*
X138100000Y-77140000D01*
D22*
X150800000Y-64440000D02*
X156460000Y-64440000D01*
X148260000Y-61900000D02*
X150800000Y-64440000D01*
X143180000Y-61900000D02*
X148260000Y-61900000D01*
X156460000Y-64440000D02*
X157730000Y-63170000D01*
X135560000Y-72060000D02*
X138100000Y-72060000D01*
X138100000Y-72060000D02*
X143180000Y-66980000D01*
X127940000Y-72060000D02*
X135560000Y-72060000D01*
X143180000Y-66980000D02*
X159000000Y-66980000D01*
X159000000Y-66980000D02*
X160270000Y-68250000D01*
X107620000Y-54280000D02*
X102540000Y-59360000D01*
X102540000Y-59360000D02*
X102540000Y-61900000D01*
X102540000Y-84760000D02*
X102540000Y-87300000D01*
X102540000Y-87300000D02*
X107620000Y-92380000D01*
X155880000Y-89840000D02*
X155880000Y-92380000D01*
X155880000Y-92380000D02*
X160960000Y-97460000D01*
X153340000Y-82220000D02*
X156800000Y-85680000D01*
X156800000Y-85680000D02*
X163500000Y-85680000D01*
X148260000Y-77140000D02*
X150800000Y-77140000D01*
X153340000Y-79680000D02*
X153340000Y-82220000D01*
X150800000Y-77140000D02*
X153340000Y-79680000D01*
X159500000Y-79680000D02*
X155880000Y-79680000D01*
X163500000Y-83680000D02*
X159500000Y-79680000D01*
X127940000Y-61900000D02*
X134036000Y-55804000D01*
X134036000Y-55804000D02*
X134036000Y-49200000D01*
X134036000Y-49200000D02*
X133969009Y-49200000D01*
M02*
